<svg width="1440" height="804" viewBox="0 0 1440 804" fill="none" xmlns="http://www.w3.org/2000/svg">
<g opacity="0.7" clip-path="url(#clip0_0_58)">
<rect width="1440" height="804" fill="white"/>
<path opacity="0.4" d="M1457.45 -136.634C1454.35 -138.455 1449.33 -138.455 1446.24 -136.634C1443.91 -135.267 1443.34 -133.268 1444.51 -131.598L1270.8 -30.0271V98.1892L1228.48 122.937V262.388L1083.53 347.157L1060.94 333.948L1172.72 268.588V192.144L1172.27 191.891L1045.18 117.572V91.6354L1117.05 49.6052C1120.15 50.921 1124.5 50.7692 1127.3 49.1497C1130.4 47.3278 1130.4 44.3925 1127.3 42.5959C1124.2 40.774 1119.18 40.774 1116.08 42.5959C1113.28 44.2407 1113.03 46.7711 1115.28 48.593L1043.4 90.6232V118.635L1043.85 118.888L1170.94 193.206V267.575L1086.5 316.969V285.111L1125.22 262.464C1128.32 263.78 1132.67 263.628 1135.47 262.008C1138.57 260.187 1138.57 257.251 1135.47 255.455C1132.37 253.633 1127.35 253.633 1124.25 255.455C1121.45 257.099 1121.2 259.63 1123.45 261.452L1084.73 284.099V318.032L1059.19 332.961L1028.99 315.299V259.832L1085.95 226.507V188.171L1085.5 187.918L965.556 117.775C967.804 115.953 967.555 113.422 964.756 111.778C961.659 109.956 956.637 109.956 953.539 111.778C950.441 113.599 950.441 116.535 953.539 118.331C956.337 119.976 960.684 120.103 963.782 118.787L1084.15 189.183V225.444L1028.96 257.732V219.497L1028.51 219.244L955.138 176.328C957.386 174.507 957.136 171.976 954.338 170.331C951.24 168.509 946.219 168.509 943.121 170.331C940.023 172.153 940.023 175.089 943.121 176.885C945.919 178.53 950.266 178.656 953.364 177.341L1027.19 220.51V314.211L1005.98 301.812L971.027 322.258L939.373 303.735V258.744L938.924 258.491L855.229 209.553V167.143C856.953 167.042 858.627 166.612 859.951 165.827C863.049 164.005 863.049 161.07 859.951 159.273C856.853 157.452 851.832 157.452 848.734 159.273C845.636 161.095 845.636 164.031 848.734 165.827C850.058 166.612 851.732 167.017 853.456 167.143V210.59L853.905 210.843L937.6 259.782V302.698L801.39 223.04V138.6L875.266 95.4057H943.071L943.271 95.2792L1059.62 27.2616C1062.72 28.5774 1067.06 28.4256 1069.86 26.8061C1072.96 24.9842 1072.96 22.0489 1069.86 20.2523C1066.76 18.4304 1061.74 18.4304 1058.64 20.2523C1055.85 21.8971 1055.6 24.4275 1057.84 26.2494L942.596 93.6344H878.339L1092.07 -31.3429C1095.17 -30.0271 1099.52 -30.1789 1102.31 -31.7984C1105.41 -33.6203 1105.41 -36.5555 1102.31 -38.3521C1099.22 -40.174 1094.2 -40.174 1091.1 -38.3521C1088.3 -36.7074 1088.05 -34.1769 1090.3 -32.355L799.617 137.613V224.128L800.066 224.381L969.278 323.32L935.226 343.235L646.319 174.304V73.4923L645.869 73.2393L547.61 15.7988C549.858 13.9769 549.608 11.4465 546.81 9.8017C543.712 7.9798 538.691 7.9798 535.593 9.8017C532.495 11.6236 532.495 14.5589 535.593 16.3555C538.391 18.0003 542.738 18.1268 545.836 16.811L644.52 74.5298V175.342L644.97 175.595L933.427 344.272L900.999 363.225L615.289 196.142H444.903L338.424 133.868V38.1677C339.548 37.9399 340.598 37.5857 341.497 37.0796C344.595 35.2577 344.595 32.3224 341.497 30.5258C338.399 28.7039 333.378 28.7039 330.28 30.5258C327.182 32.3477 327.182 35.283 330.28 37.0796C332.029 38.0918 334.377 38.522 336.65 38.3954V134.906L337.1 135.159L444.453 197.938H614.84L856.029 338.984H807.511L725.191 290.855H661.784L661.584 290.982L573.642 342.4C570.544 341.084 566.197 341.236 563.399 342.855C560.301 344.677 560.301 347.612 563.399 349.409C566.497 351.231 571.519 351.231 574.617 349.409C577.415 347.764 577.665 345.234 575.416 343.412L662.258 292.626H724.717L807.037 340.755H859.102L899.25 364.237L812.708 414.846L788.099 400.448V362.668L725.516 326.104C727.764 324.282 727.515 321.752 724.717 320.107C721.619 318.285 716.597 318.285 713.499 320.107C710.401 321.929 710.401 324.864 713.499 326.661C716.297 328.305 720.644 328.432 723.742 327.116L786.25 363.681V399.385L719.595 360.391H688.016L687.816 360.518L650.166 382.532C647.068 381.216 642.721 381.368 639.923 382.988C636.825 384.81 636.825 387.745 639.923 389.542C643.021 391.363 648.043 391.363 651.141 389.542C653.939 387.897 654.189 385.366 651.94 383.544L688.491 362.162H719.095L810.859 415.807L794.195 425.549L847.385 456.648L822.476 471.223H784.802L757.844 455.459C759.993 453.662 759.693 451.157 756.945 449.538C753.847 447.716 748.826 447.716 745.728 449.538C742.63 451.36 742.63 454.295 745.728 456.091C748.551 457.736 752.973 457.863 756.096 456.496L784.327 472.995H819.403L755.871 510.141L606.42 422.741H498.867L498.667 422.867L438.108 458.268C435.01 456.952 430.663 457.104 427.865 458.723C424.767 460.545 424.767 463.48 427.865 465.277C430.963 467.099 435.984 467.099 439.082 465.277C441.88 463.632 442.13 461.102 439.882 459.28L499.342 424.512H605.921L721.194 491.922H671.852L623.634 463.733C625.882 461.911 625.633 459.381 622.835 457.736C619.737 455.914 614.715 455.914 611.617 457.736C608.519 459.558 608.519 462.493 611.617 464.29C614.415 465.935 618.762 466.061 621.86 464.746L671.377 493.719H724.267L754.072 511.153L678.198 555.512H435.684L247.335 445.489C249.584 443.667 249.334 441.137 246.536 439.492C243.438 437.67 238.416 437.67 235.318 439.492C232.22 441.314 232.22 444.249 235.318 446.046C238.116 447.69 242.463 447.817 245.561 446.501L435.26 557.435H675.15L645.045 575.046H465.539L465.34 575.173L376.824 626.945C373.726 625.629 369.379 625.781 366.58 627.401C363.483 629.223 363.483 632.158 366.58 633.955C369.678 635.776 374.7 635.776 377.798 633.955C380.596 632.31 380.846 629.779 378.597 627.957L466.039 576.843H645.544L645.744 576.716L849.183 457.762L871.768 470.97L657.886 596.049H501.465L501.266 596.175L312.342 706.653H50.5912L0 677.048V679.122L50.1166 708.425H312.816L313.016 708.298L431.587 638.965V680.008L353.439 725.707C350.341 724.392 345.994 724.544 343.196 726.163C340.098 727.985 340.098 730.92 343.196 732.717C346.294 734.539 351.316 734.539 354.414 732.717C357.212 731.072 357.462 728.542 355.213 726.72L433.361 681.02V638.155H432.961L501.965 597.795H658.386L658.586 597.668L873.567 471.957L899.225 486.963L482.103 730.87V774.95H483.877V731.907L900.999 488L932.703 506.548L717.546 632.36V654.856L679.397 677.174V728.921L605.421 772.191C602.323 770.875 597.976 771.027 595.178 772.647C594.054 773.305 593.329 774.114 593.029 774.975H608.494C608.269 774.342 607.845 773.76 607.195 773.229L681.171 729.959V678.212L717.546 656.931V739.777L739.007 752.328L700.283 775H703.831L740.731 753.416L777.631 775H781.179L719.245 738.79V633.448L934.402 507.636L963.257 524.514L810.984 613.559C807.886 612.244 803.539 612.395 800.741 614.015C797.643 615.837 797.643 618.772 800.741 620.569C803.839 622.391 808.86 622.391 811.958 620.569C814.757 618.924 815.006 616.393 812.758 614.572L965.031 525.526L992.888 541.822L810.734 648.327H761.242C760.942 647.467 760.218 646.632 759.069 645.949C755.971 644.127 750.949 644.127 747.851 645.949C744.753 647.771 744.753 650.706 747.851 652.503C750.949 654.324 755.971 654.324 759.069 652.503C760.218 651.819 760.942 650.984 761.242 650.124H811.209L811.409 649.997L994.636 542.859L1005.88 549.439L1014.52 544.378L1058.17 569.884V605.411L1022.12 626.49V626.389H965.531L965.331 626.515L903.247 662.827C900.15 661.511 895.802 661.663 893.004 663.282C889.906 665.104 889.906 668.039 893.004 669.836C896.102 671.658 901.124 671.658 904.222 669.836C907.02 668.191 907.27 665.661 905.021 663.839L966.006 628.185H1019.2L913.191 690.155C910.068 688.738 905.596 688.839 902.723 690.509C899.625 692.331 899.625 695.267 902.723 697.063C905.821 698.885 910.842 698.885 913.94 697.063C916.664 695.469 916.988 693.015 914.915 691.193L1047.13 613.888V630.969L968.479 676.972V709.437L904.447 746.887C901.349 745.571 897.002 745.723 894.204 747.343C891.106 749.164 891.106 752.1 894.204 753.896C897.302 755.718 902.323 755.718 905.421 753.896C908.219 752.252 908.469 749.721 906.221 747.899L970.253 710.449V677.984L1048.9 631.981V612.826L1059.92 606.373V568.771L1016.27 543.264L1044.95 526.488L1134.74 578.994V638.686L1073.76 674.34C1070.64 672.923 1066.16 673.024 1063.29 674.694C1060.19 676.516 1060.19 679.451 1063.29 681.248C1066.39 683.07 1071.41 683.07 1074.51 681.248C1077.23 679.654 1077.56 677.199 1075.48 675.378L1134.72 640.736V688.966L1087.92 716.345V774.899H1089.7V717.382L1134.72 691.041V774.874H1136.49V577.931L1046.7 525.425L1078.91 506.599L1196.28 575.224V738.689L1252.69 771.685V775H1254.46V770.749L1198.05 737.752V574.287L1080.68 505.662L1104.54 491.695L1262.93 584.308V723.759L1401.5 804H1406L1264.86 722.747V583.296L1106.46 490.682L1145.14 468.06L1408.69 622.163V691.547L1499 744.357V742.282L1410.46 690.509V621.125L1262.23 534.433H1379.45L1499 604.349V602.274L1379.93 532.637H1259.16L1146.93 467.023L1191.9 440.732L1288.37 497.135H1443.26L1499 529.727V527.652L1486.78 520.516H1499V518.719H1483.71L1443.74 495.338H1288.84L1261.83 479.548H1327.69L1327.89 479.422L1360.92 460.115H1498.53L1498.98 460.393V458.318H1363.97L1401.14 436.582C1404.24 437.898 1408.59 437.746 1411.38 436.126C1414.48 434.305 1414.48 431.369 1411.38 429.573C1408.29 427.751 1403.26 427.751 1400.17 429.573C1397.37 431.217 1397.12 433.748 1399.37 435.57L1327.16 477.802H1258.71L1193.6 439.745L1217.66 425.676L1202.17 416.617H1247.17L1305.98 451.005C1303.73 452.827 1303.98 455.358 1306.78 457.002C1309.88 458.824 1314.9 458.824 1318 457.002C1321.09 455.181 1321.09 452.245 1318 450.449C1315.2 448.804 1310.85 448.677 1307.75 449.993L1247.64 414.846H1199.1L1166.17 395.589L1186.41 383.747H1222.31L1253.89 365.275H1277.45L1330.66 396.399C1328.26 398.221 1328.46 400.827 1331.31 402.497C1334.41 404.319 1339.43 404.319 1342.53 402.497C1345.63 400.675 1345.63 397.74 1342.53 395.943C1339.78 394.349 1335.56 394.172 1332.46 395.387L1277.92 363.504H1253.41L1221.83 381.976H1189.48L1254.21 344.12H1289.17L1362.02 386.707H1498.95V384.911H1362.49L1289.64 342.324H1253.74L1253.54 342.45L1164.4 394.577L1141.01 380.913L1241.75 322.005H1312.8L1371.41 356.267H1498.98V354.47H1371.91L1316.37 322.005H1498.98V320.208H1241.3L1241.1 320.335L1139.29 379.875L1112.71 364.339L1253.16 282.201H1498.98V280.405H1319.84L1498.98 175.645V173.57L1316.3 280.405H1254.46L1387.62 202.544V185.387L1451.36 148.14C1454.45 149.455 1458.8 149.304 1461.6 147.684C1464.7 145.862 1464.7 142.927 1461.6 141.13C1458.5 139.308 1453.48 139.308 1450.38 141.13C1447.58 142.775 1447.33 145.306 1449.58 147.127L1414.88 167.421V120.381L1499 71.0378V68.9629L1413.11 119.192V168.307L1385.85 184.249V201.405L1251.59 279.924L1252.04 280.708L1110.93 363.225L1085.28 348.22L1230.23 263.451V123.999L1499 -33.1901V-35.265L1272.58 97.1517V-28.9896L1445.89 -130.333C1446.01 -130.257 1446.11 -130.156 1446.24 -130.08C1449.33 -128.258 1454.35 -128.258 1457.45 -130.08C1460.55 -131.902 1460.55 -134.837 1457.45 -136.634ZM1214.17 425.625L1005.95 547.389L797.768 425.651L1005.98 303.887L1214.17 425.625Z" fill="url(#paint0_radial_0_58)"/>
<path opacity="0.5" d="M1025.9 497.774L1230.23 367.705L1147.01 314.807L1017.45 406.206L958.666 480.393L1025.9 497.774Z" fill="#0F054C"/>
<path opacity="0.5" d="M1130.93 301.586C1133.17 295.099 1118.06 283.84 1097.17 276.438C1076.28 269.036 1057.53 268.294 1055.28 274.781C1053.04 281.268 1068.16 292.527 1089.05 299.929C1109.94 307.331 1128.69 308.073 1130.93 301.586Z" fill="#0F054C"/>
<path d="M1108.18 251.202L1107.91 244.527L1106.39 240.62L1105.42 243.85L1108.18 251.202Z" fill="#DD821F"/>
<path d="M1038.99 252.48L1038.73 245.928C1038.73 245.928 1044.2 251.45 1044.2 251.588C1044.22 251.711 1038.99 252.48 1038.99 252.48Z" fill="#FFD85A"/>
<path d="M1074.06 271.891C1093.17 271.43 1108.32 261.601 1107.92 244.512C1107.51 227.438 1091.7 213.963 1072.61 214.425C1053.5 214.886 1038.35 229.099 1038.75 246.188C1039.14 263.277 1054.96 272.368 1074.06 271.891Z" fill="#FFD85A"/>
<path d="M1074.31 282.975C1093.41 282.512 1108.57 268.292 1108.17 251.213C1107.77 234.135 1091.95 220.665 1072.85 221.127C1053.74 221.59 1038.58 235.81 1038.98 252.888C1039.39 269.967 1055.2 283.437 1074.31 282.975Z" fill="#FFD85A"/>
<path d="M1097.73 229.761C1104 235.191 1107.98 242.759 1108.18 251.203C1108.59 268.277 1093.43 282.505 1074.32 282.967C1064.87 283.197 1056.23 280.013 1049.87 274.676L1097.73 229.761Z" fill="#DD821F"/>
<path d="M1074.27 281.594C1092.52 281.152 1107 267.569 1106.62 251.254C1106.23 234.94 1091.13 222.073 1072.88 222.515C1054.63 222.957 1040.15 236.54 1040.53 252.854C1040.92 269.169 1056.02 282.036 1074.27 281.594Z" fill="#F9BF30"/>
<path d="M1074.14 275.762C1088.79 275.408 1100.42 264.504 1100.11 251.408C1099.8 238.313 1087.67 227.984 1073.02 228.339C1058.37 228.694 1046.74 239.597 1047.05 252.693C1047.36 265.788 1059.49 276.117 1074.14 275.762Z" fill="#F2B42A"/>
<path d="M1047.06 252.68C1047.04 252.142 1047.06 251.603 1047.09 251.065C1048.3 263.386 1060.03 272.861 1074.06 272.523C1088.12 272.184 1099.37 262.14 1099.99 249.773C1100.04 250.311 1100.09 250.834 1100.1 251.388C1100.4 264.478 1088.78 275.384 1074.14 275.753C1059.5 276.107 1047.38 265.77 1047.06 252.68Z" fill="#FFD85A"/>
<path d="M1068.51 254.033L1073.94 248.926C1079.18 250.126 1088.95 252.387 1096.74 254.233C1094.8 260.14 1090.08 265.016 1083.89 267.6L1068.51 254.033Z" fill="#FFD85A"/>
<path d="M1077.06 269.428C1076.19 269.536 1075.31 269.597 1074.41 269.628C1068 269.782 1062.16 267.659 1057.78 264.075L1066.67 255.738L1077.06 269.428Z" fill="#FFD85A"/>
<path d="M1079.78 243.45L1090.03 233.836C1093.48 236.882 1096.56 240.251 1097.4 244.742L1079.78 243.45Z" fill="#FFD85A"/>
<path d="M1074.41 231.159C1059.77 231.513 1048.14 242.419 1048.45 255.524C1048.52 258.185 1049.08 260.708 1050.03 263.077C1048.23 259.969 1047.16 256.447 1047.07 252.694C1046.77 239.604 1058.39 228.698 1073.03 228.329C1084.71 228.052 1094.78 234.559 1098.55 243.849C1094.04 236.097 1084.87 230.898 1074.41 231.159Z" fill="#DD821F"/>
<path d="M1107.91 244.526C1107.97 247.064 1108.2 248.91 1107.6 251.279C1106.84 248.772 1105.19 241.281 1105.19 241.281L1102.56 235.328L1100.37 233.498L1096.67 230.76L1096.36 222.177C1103.28 227.652 1107.71 235.589 1107.91 244.526Z" fill="#DD821F"/>
<path d="M1040.98 243.652L1040.83 241.898C1040.83 241.652 1040.63 241.452 1040.39 241.452H1040.25C1040.02 241.452 1039.83 241.667 1039.84 241.913L1039.99 243.667C1039.99 243.913 1040.19 244.113 1040.43 244.113H1040.57C1040.8 244.113 1040.98 243.898 1040.98 243.652Z" fill="#DD821F"/>
<path d="M1044.02 236.897L1043.84 233.729C1043.84 233.437 1043.61 233.206 1043.34 233.221H1043.03C1042.76 233.221 1042.56 233.467 1042.56 233.76L1042.74 236.928C1042.74 237.22 1042.97 237.436 1043.24 237.436H1043.55C1043.81 237.436 1044.02 237.19 1044.02 236.897Z" fill="#DD821F"/>
<path d="M1048.23 231.023L1048.04 227.962C1048.03 227.639 1047.79 227.378 1047.48 227.393L1046.95 227.409C1046.65 227.409 1046.42 227.685 1046.42 228.009L1046.6 231.069C1046.62 231.393 1046.86 231.654 1047.16 231.639L1047.69 231.623C1048 231.623 1048.24 231.346 1048.23 231.023Z" fill="#DD821F"/>
<path d="M1054.53 226.27L1054.33 222.548C1054.32 222.225 1054.07 221.963 1053.77 221.978L1053.24 221.994C1052.94 221.994 1052.71 222.271 1052.71 222.594L1052.9 226.316C1052.92 226.639 1053.16 226.901 1053.47 226.885L1054 226.87C1054.3 226.87 1054.55 226.593 1054.53 226.27Z" fill="#DD821F"/>
<path d="M1060.88 223.162L1060.68 218.886C1060.67 218.563 1060.42 218.302 1060.12 218.317L1059.59 218.332C1059.28 218.332 1059.06 218.609 1059.06 218.932L1059.25 223.208C1059.27 223.531 1059.51 223.793 1059.82 223.778L1060.35 223.762C1060.65 223.747 1060.88 223.485 1060.88 223.162Z" fill="#DD821F"/>
<path d="M1067.26 221.257L1067.06 217.135C1067.06 216.812 1066.8 216.55 1066.5 216.566L1065.97 216.581C1065.66 216.581 1065.44 216.858 1065.44 217.181L1065.63 221.303C1065.65 221.626 1065.89 221.888 1066.2 221.872L1066.73 221.857C1067.02 221.857 1067.26 221.58 1067.26 221.257Z" fill="#DD821F"/>
<path d="M1073.65 220.609L1073.46 216.425C1073.44 216.102 1073.2 215.84 1072.9 215.856L1072.36 215.871C1072.06 215.871 1071.83 216.148 1071.83 216.471L1072.03 220.655C1072.04 220.978 1072.29 221.239 1072.59 221.224L1073.12 221.208C1073.43 221.193 1073.67 220.932 1073.65 220.609Z" fill="#DD821F"/>
<path d="M1080.08 220.743L1079.88 216.82C1079.87 216.497 1079.62 216.236 1079.32 216.251L1078.79 216.267C1078.49 216.267 1078.26 216.544 1078.26 216.867L1078.45 220.789C1078.47 221.112 1078.71 221.373 1079.02 221.358L1079.55 221.343C1079.85 221.327 1080.08 221.066 1080.08 220.743Z" fill="#DD821F"/>
<path d="M1086.54 222.161L1086.34 218.377C1086.32 218.054 1086.08 217.793 1085.78 217.808L1085.24 217.824C1084.94 217.824 1084.71 218.101 1084.71 218.424L1084.91 222.223C1084.93 222.546 1085.17 222.807 1085.47 222.792L1086 222.777C1086.31 222.761 1086.54 222.484 1086.54 222.161Z" fill="#DD821F"/>
<path d="M1093.02 225.363L1092.82 221.256C1092.82 220.933 1092.57 220.671 1092.26 220.687L1091.73 220.702C1091.43 220.702 1091.2 220.979 1091.2 221.302L1091.4 225.409C1091.41 225.732 1091.65 225.993 1091.96 225.978L1092.49 225.963C1092.79 225.947 1093.04 225.686 1093.02 225.363Z" fill="#DD821F"/>
<path d="M853.536 417.497L853.581 431.341H853.596C853.581 431.525 853.688 431.71 853.915 431.848L1002.6 518.232C1003.08 518.509 1003.93 518.479 1004.48 518.156L1028.71 503.897C1028.98 503.743 1029.12 503.543 1029.15 503.343V503.327C1029.15 503.312 1029.15 503.297 1029.15 503.281L1029.1 489.299L1017.35 496.098L880.164 416.389C879.678 416.113 878.827 416.143 878.28 416.466L869.971 421.358L853.536 417.497Z" fill="url(#paint1_linear_0_58)"/>
<path d="M880.103 402.482L1028.78 488.866C1029.27 489.143 1029.21 489.651 1028.65 489.974L1004.42 504.233C1003.86 504.556 1003.02 504.602 1002.53 504.31L853.855 417.925C853.368 417.648 853.429 417.141 853.991 416.818L878.219 402.559C878.781 402.236 879.617 402.19 880.103 402.482Z" fill="url(#paint2_linear_0_58)"/>
<path opacity="0.6" d="M885.48 423.295L1002.31 489.929C1003.17 485.237 1004.52 480.484 1006.3 475.793L889.688 408.036C887.759 413.097 886.331 418.249 885.48 423.295Z" fill="#24126A"/>
<path d="M874.953 410.465L1015.14 491.927C1015.48 492.127 1015.43 492.466 1015.05 492.681L1008.96 496.265C1008.58 496.496 1008 496.511 1007.67 496.327L867.48 414.865C867.146 414.665 867.191 414.326 867.571 414.111L873.662 410.527C874.042 410.296 874.634 410.281 874.953 410.465Z" fill="#24126A"/>
<path d="M867.495 414.867L870.351 416.528L873.632 414.59C874.012 414.359 874.589 414.344 874.923 414.528L1012.27 494.329L1015.07 492.683C1015.45 492.453 1015.49 492.114 1015.16 491.93L874.969 410.468C874.635 410.268 874.057 410.298 873.678 410.529L867.587 414.113C867.192 414.328 867.161 414.667 867.495 414.867Z" fill="#453C9E"/>
<path opacity="0.96" d="M1228.37 270.169L1111.74 202.396C1111.8 223.562 1097.18 249.326 1079.12 259.955L918.397 354.507C897.161 366.997 879.997 397.284 880.057 422.156L996.687 489.929C996.626 465.056 1013.79 434.77 1035.03 422.28L1195.75 327.728C1213.81 317.099 1228.41 291.334 1228.37 270.169Z" fill="url(#paint3_linear_0_58)"/>
<path opacity="0.8" d="M880.058 422.172L996.687 489.944C996.687 488.852 996.733 487.744 996.793 486.637H996.778L880.164 418.88C880.088 419.972 880.058 421.079 880.058 422.172Z" fill="#453C9E"/>
<g opacity="0.32">
<path opacity="0.32" d="M1048.94 371.349L1075.36 386.7L1072.82 388.192L1046.4 372.841L1048.94 371.349Z" fill="#453C9E"/>
<path opacity="0.32" d="M1035.39 363.475L1044.9 369.012L1042.36 370.504L1032.85 364.982L1035.39 363.475Z" fill="#453C9E"/>
<path opacity="0.32" d="M1024.9 357.382L1031.35 361.135L1028.81 362.627L1022.36 358.874L1024.9 357.382Z" fill="#453C9E"/>
<path opacity="0.32" d="M1066.77 374.918L1081.16 383.286L1078.62 384.778L1064.22 376.41L1066.77 374.918Z" fill="#453C9E"/>
<path opacity="0.32" d="M1045.1 362.322L1062.73 372.581L1060.2 374.073L1042.55 363.829L1045.1 362.322Z" fill="#453C9E"/>
<path opacity="0.32" d="M1034.6 356.229L1041.06 359.982L1038.52 361.474L1032.05 357.721L1034.6 356.229Z" fill="#453C9E"/>
<path opacity="0.32" d="M1024.61 350.417L1031.06 354.185L1028.53 355.677L1022.07 351.924L1024.61 350.417Z" fill="#453C9E"/>
<path opacity="0.32" d="M1076.56 373.828L1086.96 379.873L1084.42 381.365L1074 375.32L1076.56 373.828Z" fill="#453C9E"/>
<path opacity="0.32" d="M1068.96 369.411L1072.52 371.473L1069.98 372.965L1066.41 370.903L1068.96 369.411Z" fill="#453C9E"/>
<path opacity="0.32" d="M1058.46 363.303L1064.92 367.057L1062.38 368.549L1055.91 364.796L1058.46 363.303Z" fill="#453C9E"/>
<path opacity="0.32" d="M1054.33 354.123L1092.78 376.457L1090.23 377.949L1051.8 355.615L1054.33 354.123Z" fill="#453C9E"/>
<path opacity="0.32" d="M1040.78 346.246L1050.29 351.768L1047.76 353.276L1038.25 347.738L1040.78 346.246Z" fill="#453C9E"/>
<path opacity="0.32" d="M1088.16 366.982L1098.58 373.042L1096.03 374.534L1085.62 368.489L1088.16 366.982Z" fill="#453C9E"/>
<path opacity="0.32" d="M1063.72 352.782L1084.12 364.641L1081.58 366.133L1061.18 354.274L1063.72 352.782Z" fill="#453C9E"/>
<path opacity="0.32" d="M1053.22 346.693L1059.68 350.446L1057.14 351.938L1050.69 348.185L1053.22 346.693Z" fill="#453C9E"/>
<path opacity="0.32" d="M1083.07 357.245L1104.38 369.627L1101.85 371.119L1080.54 358.737L1083.07 357.245Z" fill="#453C9E"/>
<path opacity="0.32" d="M1063.63 345.938L1079.03 354.89L1076.5 356.398L1061.09 347.446L1063.63 345.938Z" fill="#453C9E"/>
<path opacity="0.32" d="M1049.18 337.557L1059.59 343.602L1057.05 345.094L1046.63 339.049L1049.18 337.557Z" fill="#453C9E"/>
<path opacity="0.32" d="M1102.99 362.029L1110.19 366.213L1107.65 367.705L1100.45 363.521L1102.99 362.029Z" fill="#453C9E"/>
<path opacity="0.32" d="M1089.44 354.153L1098.96 359.69L1096.41 361.182L1086.9 355.645L1089.44 354.153Z" fill="#453C9E"/>
<path opacity="0.32" d="M1070.09 342.908L1085.41 351.814L1082.88 353.306L1067.55 344.4L1070.09 342.908Z" fill="#453C9E"/>
<path opacity="0.32" d="M1093.95 349.987L1115.99 362.8L1113.45 364.292L1091.41 351.479L1093.95 349.987Z" fill="#453C9E"/>
<path opacity="0.32" d="M1069.25 335.634L1089.91 347.647L1087.37 349.14L1066.71 337.142L1069.25 335.634Z" fill="#453C9E"/>
<path opacity="0.32" d="M1058.75 329.542L1065.22 333.295L1062.67 334.787L1056.22 331.034L1058.75 329.542Z" fill="#453C9E"/>
<path opacity="0.32" d="M1048.68 323.68L1055.14 327.433L1052.6 328.925L1046.15 325.172L1048.68 323.68Z" fill="#453C9E"/>
<path opacity="0.32" d="M1108.59 351.708L1121.79 359.383L1119.26 360.875L1106.06 353.2L1108.59 351.708Z" fill="#453C9E"/>
<path opacity="0.32" d="M995.35 340.216L977.046 329.572L974.494 331.064L992.813 341.708L995.35 340.216Z" fill="#453C9E"/>
<path opacity="0.32" d="M997.234 334.526L982.849 326.158L980.312 327.65L994.697 336.018L997.234 334.526Z" fill="#453C9E"/>
<path opacity="0.32" d="M999.072 328.788L988.651 322.743L986.115 324.235L996.52 330.295L999.072 328.788Z" fill="#453C9E"/>
<path opacity="0.32" d="M1009.6 328.126L994.454 319.328L991.917 320.82L1007.06 329.618L1009.6 328.126Z" fill="#453C9E"/>
<path opacity="0.32" d="M1010.68 321.96L1000.26 315.915L997.72 317.407L1008.14 323.467L1010.68 321.96Z" fill="#453C9E"/>
<path opacity="0.32" d="M1019.27 320.175L1006.07 312.499L1003.52 313.991L1016.74 321.667L1019.27 320.175Z" fill="#453C9E"/>
<path opacity="0.32" d="M1019.08 313.268L1011.88 309.084L1009.33 310.576L1016.53 314.76L1019.08 313.268Z" fill="#453C9E"/>
<path opacity="0.32" d="M1031.62 313.777L1017.68 305.671L1015.14 307.163L1029.09 315.269L1031.62 313.777Z" fill="#453C9E"/>
<path opacity="0.32" d="M1036.7 309.929L1023.48 302.253L1020.95 303.745L1034.15 311.421L1036.7 309.929Z" fill="#453C9E"/>
<path opacity="0.32" d="M1098.95 346.092L1104.55 349.353L1102.01 350.86L1096.39 347.584L1098.95 346.092Z" fill="#453C9E"/>
<path opacity="0.32" d="M1082.25 336.404L1094.91 343.757L1092.37 345.249L1079.72 337.896L1082.25 336.404Z" fill="#453C9E"/>
<path opacity="0.32" d="M1098.05 310.207L1119.39 322.604L1116.84 324.096L1095.51 311.699L1098.05 310.207Z" fill="#453C9E"/>
<path opacity="0.32" d="M1083.44 301.716L1091.84 306.592L1089.3 308.084L1080.9 303.208L1083.44 301.716Z" fill="#453C9E"/>
</g>
<path opacity="0.3" d="M1072.13 382.193C1075.01 373.837 1055.55 359.337 1028.65 349.805C1001.75 340.273 977.601 339.32 974.713 347.675C971.826 356.03 991.292 370.531 1018.19 380.063C1045.09 389.594 1069.24 390.548 1072.13 382.193Z" fill="#0F054C"/>
<path d="M1042.82 317.303L1042.48 308.705L1040.51 303.675L1039.26 307.843L1042.82 317.303Z" fill="#DD821F"/>
<path d="M953.744 318.947L953.41 310.517C953.41 310.517 960.458 317.639 960.458 317.808C960.474 317.978 953.744 318.947 953.744 318.947Z" fill="#FFD85A"/>
<path d="M998.889 343.957C1023.48 343.357 1043 330.698 1042.47 308.717C1041.95 286.737 1021.6 269.402 997.005 269.986C972.413 270.586 952.894 288.89 953.425 310.871C953.942 332.851 974.296 344.542 998.889 343.957Z" fill="#FFD85A"/>
<path d="M999.215 358.211C1023.8 357.615 1043.32 339.309 1042.8 317.321C1042.28 295.334 1021.92 277.992 997.335 278.588C972.745 279.183 953.232 297.49 953.751 319.477C954.27 341.464 974.625 358.806 999.215 358.211Z" fill="#FFD85A"/>
<path d="M1029.38 289.707C1037.46 296.705 1042.58 306.427 1042.82 317.301C1043.34 339.282 1023.83 357.586 999.238 358.186C987.071 358.479 975.952 354.387 967.75 347.511L1029.38 289.707Z" fill="#DD821F"/>
<path d="M999.175 356.422C1022.67 355.853 1041.31 338.366 1040.81 317.364C1040.32 296.362 1020.87 279.797 997.38 280.366C973.889 280.935 955.247 298.421 955.743 319.424C956.239 340.426 975.684 356.99 999.175 356.422Z" fill="#F9BF30"/>
<path d="M998.997 348.918C1017.86 348.462 1032.83 334.425 1032.43 317.568C1032.03 300.71 1016.42 287.414 997.556 287.871C978.694 288.327 963.726 302.363 964.124 319.221C964.522 336.079 980.135 349.375 998.997 348.918Z" fill="#F2B42A"/>
<path d="M964.134 319.208C964.119 318.516 964.134 317.824 964.18 317.131C965.744 332.99 980.843 345.203 998.919 344.757C1017 344.326 1031.49 331.406 1032.31 315.47C1032.37 316.162 1032.43 316.839 1032.44 317.547C1032.84 334.405 1017.88 348.449 999.01 348.91C980.144 349.372 964.544 336.066 964.134 319.208Z" fill="#FFD85A"/>
<path d="M991.735 320.965L998.738 314.397C1005.48 315.951 1018.06 318.843 1028.1 321.242C1025.61 328.856 1019.52 335.132 1011.56 338.455L991.735 320.965Z" fill="#FFD85A"/>
<path d="M1002.76 340.775C1001.65 340.914 1000.51 341.006 999.375 341.037C991.127 341.237 983.578 338.499 977.973 333.899L989.411 323.178L1002.76 340.775Z" fill="#FFD85A"/>
<path d="M1006.26 307.334L1019.46 294.952C1023.89 298.874 1027.86 303.212 1028.94 308.996L1006.26 307.334Z" fill="#FFD85A"/>
<path d="M999.36 291.503C980.494 291.965 965.532 305.993 965.927 322.867C966.002 326.282 966.716 329.558 967.947 332.588C965.623 328.589 964.24 324.051 964.134 319.221C963.739 302.363 978.701 288.319 997.567 287.858C1012.61 287.489 1025.58 295.872 1030.41 307.839C1024.61 297.856 1012.82 291.18 999.36 291.503Z" fill="#DD821F"/>
<path d="M1042.48 308.701C1042.56 311.978 1042.86 314.347 1042.1 317.408C1041.12 314.177 1038.99 304.533 1038.99 304.533L1035.6 296.873L1032.78 294.519L1027.99 290.997L1027.6 279.938C1036.5 286.982 1042.21 297.211 1042.48 308.701Z" fill="#DD821F"/>
<path d="M956.296 307.577L956.114 305.316C956.099 304.993 955.856 304.732 955.552 304.747H955.385C955.081 304.747 954.853 305.024 954.853 305.347L955.035 307.608C955.05 307.931 955.294 308.192 955.597 308.177H955.764C956.068 308.177 956.311 307.9 956.296 307.577Z" fill="#DD821F"/>
<path d="M960.215 298.905L959.987 294.829C959.972 294.459 959.699 294.167 959.349 294.167L958.954 294.183C958.605 294.198 958.347 294.49 958.347 294.875L958.575 298.951C958.59 299.32 958.863 299.612 959.212 299.612L959.607 299.597C959.957 299.582 960.23 299.274 960.215 298.905Z" fill="#DD821F"/>
<path d="M965.638 291.322L965.41 287.368C965.395 286.953 965.076 286.615 964.696 286.63L964.013 286.646C963.618 286.661 963.314 286.999 963.329 287.415L963.557 291.368C963.572 291.783 963.891 292.121 964.271 292.106L964.954 292.091C965.334 292.091 965.653 291.752 965.638 291.322Z" fill="#DD821F"/>
<path d="M973.765 285.215L973.522 280.431C973.506 280.015 973.187 279.677 972.808 279.692L972.124 279.708C971.729 279.723 971.425 280.062 971.44 280.477L971.684 285.261C971.699 285.676 972.018 286.014 972.397 285.999L973.081 285.984C973.461 285.984 973.765 285.63 973.765 285.215Z" fill="#DD821F"/>
<path d="M981.922 281.199L981.664 275.693C981.648 275.277 981.329 274.939 980.95 274.954L980.266 274.97C979.871 274.985 979.567 275.324 979.583 275.739L979.841 281.246C979.856 281.661 980.175 281.999 980.555 281.984L981.238 281.968C981.633 281.968 981.937 281.615 981.922 281.199Z" fill="#DD821F"/>
<path d="M990.14 278.751L989.881 273.46C989.866 273.044 989.547 272.706 989.167 272.721L988.484 272.737C988.089 272.752 987.785 273.09 987.8 273.506L988.059 278.797C988.074 279.212 988.393 279.551 988.773 279.535L989.456 279.52C989.836 279.505 990.14 279.166 990.14 278.751Z" fill="#DD821F"/>
<path d="M998.373 277.908L998.114 272.524C998.099 272.109 997.78 271.771 997.4 271.786L996.717 271.802C996.322 271.817 996.018 272.155 996.033 272.571L996.291 277.954C996.307 278.37 996.626 278.708 997.005 278.693L997.689 278.677C998.084 278.677 998.388 278.339 998.373 277.908Z" fill="#DD821F"/>
<path d="M1006.65 278.091L1006.39 273.046C1006.38 272.631 1006.06 272.292 1005.68 272.308L1005 272.323C1004.6 272.339 1004.3 272.677 1004.31 273.092L1004.57 278.138C1004.59 278.553 1004.9 278.891 1005.28 278.876L1005.97 278.861C1006.35 278.861 1006.65 278.507 1006.65 278.091Z" fill="#DD821F"/>
<path d="M1014.96 279.924L1014.72 275.048C1014.7 274.633 1014.38 274.294 1014 274.31L1013.32 274.325C1012.92 274.34 1012.62 274.679 1012.64 275.094L1012.88 279.97C1012.89 280.385 1013.21 280.724 1013.59 280.708L1014.28 280.693C1014.66 280.693 1014.96 280.339 1014.96 279.924Z" fill="#DD821F"/>
<path d="M1023.31 284.028L1023.06 278.737C1023.04 278.322 1022.72 277.983 1022.34 277.999L1021.66 278.014C1021.26 278.03 1020.96 278.368 1020.98 278.783L1021.23 284.075C1021.25 284.49 1021.57 284.828 1021.95 284.813L1022.63 284.798C1023.01 284.798 1023.33 284.459 1023.31 284.028Z" fill="#DD821F"/>
<path opacity="0.5" d="M1219.52 488.796C1222.06 481.459 1204.97 468.728 1181.36 460.361C1157.74 451.994 1136.54 451.158 1134.01 458.495C1131.47 465.832 1148.56 478.563 1172.17 486.931C1195.79 495.298 1216.99 496.133 1219.52 488.796Z" fill="#0F054C"/>
<path d="M1193.79 431.833L1193.5 424.295L1191.77 419.881L1190.66 423.526L1193.79 431.833Z" fill="#DD821F"/>
<path d="M1115.59 433.278L1115.31 425.88C1115.31 425.88 1121.49 432.125 1121.49 432.278C1121.5 432.417 1115.59 433.278 1115.59 433.278Z" fill="#FFD85A"/>
<path d="M1155.24 455.229C1176.83 454.706 1193.96 443.585 1193.5 424.296C1193.05 404.992 1175.17 389.779 1153.58 390.302C1132 390.825 1114.87 406.899 1115.32 426.203C1115.78 445.492 1133.64 455.752 1155.24 455.229Z" fill="#FFD85A"/>
<path d="M1155.51 467.763C1177.09 467.24 1194.22 451.168 1193.77 431.864C1193.31 412.56 1175.44 397.335 1153.86 397.858C1132.27 398.381 1115.14 414.453 1115.59 433.757C1116.05 453.06 1133.92 468.285 1155.51 467.763Z" fill="#FFD85A"/>
<path d="M1181.99 407.604C1189.08 413.742 1193.58 422.294 1193.79 431.831C1194.25 451.135 1177.11 467.209 1155.53 467.732C1144.85 467.993 1135.08 464.394 1127.88 458.364L1181.99 407.604Z" fill="#DD821F"/>
<path d="M1155.47 466.198C1176.09 465.698 1192.46 450.347 1192.02 431.91C1191.59 413.472 1174.51 398.931 1153.89 399.43C1133.27 399.929 1116.9 415.28 1117.34 433.718C1117.77 452.155 1134.85 466.697 1155.47 466.198Z" fill="#F9BF30"/>
<path d="M1155.32 459.604C1171.87 459.203 1185.01 446.878 1184.66 432.076C1184.31 417.273 1170.61 405.598 1154.05 405.999C1137.5 406.4 1124.36 418.725 1124.71 433.527C1125.06 448.33 1138.76 460.005 1155.32 459.604Z" fill="#F2B42A"/>
<path d="M1124.72 433.509C1124.71 432.893 1124.72 432.293 1124.75 431.678C1126.14 445.599 1139.38 456.32 1155.26 455.935C1171.13 455.551 1183.86 444.214 1184.57 430.232C1184.63 430.832 1184.68 431.447 1184.69 432.047C1185.04 446.845 1171.9 459.181 1155.35 459.581C1138.77 459.996 1125.07 448.321 1124.72 433.509Z" fill="#FFD85A"/>
<path d="M1148.95 435.046L1155.1 429.278C1161.03 430.632 1172.06 433.185 1180.88 435.277C1178.69 441.953 1173.35 447.475 1166.36 450.397L1148.95 435.046Z" fill="#FFD85A"/>
<path d="M1158.63 452.443C1157.66 452.566 1156.65 452.643 1155.65 452.674C1148.4 452.843 1141.78 450.443 1136.86 446.398L1146.9 436.984L1158.63 452.443Z" fill="#FFD85A"/>
<path d="M1161.7 423.079L1173.29 412.219C1177.17 415.665 1180.67 419.464 1181.61 424.54L1161.7 423.079Z" fill="#FFD85A"/>
<path d="M1155.64 409.188C1139.08 409.588 1125.94 421.909 1126.29 436.722C1126.36 439.721 1126.99 442.582 1128.07 445.258C1126.01 441.736 1124.81 437.752 1124.72 433.522C1124.37 418.725 1137.51 406.389 1154.07 405.989C1167.27 405.666 1178.66 413.034 1182.9 423.524C1177.81 414.756 1167.45 408.896 1155.64 409.188Z" fill="#DD821F"/>
<path d="M1193.5 424.295C1193.57 427.172 1193.84 429.248 1193.17 431.94C1192.3 429.11 1190.44 420.635 1190.44 420.635L1187.46 413.897L1184.98 411.836L1180.79 408.745L1180.44 399.039C1188.25 405.222 1193.26 414.19 1193.5 424.295Z" fill="#DD821F"/>
<path d="M1117.84 423.297L1117.68 421.313C1117.68 421.02 1117.45 420.805 1117.19 420.805H1117.04C1116.78 420.805 1116.57 421.051 1116.57 421.328L1116.73 423.312C1116.73 423.604 1116.96 423.82 1117.22 423.82H1117.37C1117.63 423.82 1117.84 423.589 1117.84 423.297Z" fill="#DD821F"/>
<path d="M1121.28 415.68L1121.08 412.111C1121.06 411.788 1120.82 411.527 1120.52 411.542L1120.17 411.557C1119.86 411.557 1119.63 411.834 1119.63 412.157L1119.83 415.726C1119.85 416.049 1120.09 416.31 1120.39 416.295L1120.74 416.28C1121.05 416.28 1121.28 416.003 1121.28 415.68Z" fill="#DD821F"/>
<path d="M1126.03 409.04L1125.83 405.579C1125.82 405.21 1125.54 404.918 1125.19 404.933L1124.6 404.949C1124.27 404.964 1123.99 405.256 1123.99 405.625L1124.19 409.086C1124.21 409.455 1124.48 409.748 1124.83 409.732L1125.42 409.717C1125.77 409.702 1126.04 409.409 1126.03 409.04Z" fill="#DD821F"/>
<path d="M1133.17 403.67L1132.96 399.471C1132.94 399.102 1132.67 398.81 1132.32 398.825L1131.73 398.84C1131.39 398.856 1131.12 399.148 1131.12 399.517L1131.33 403.716C1131.35 404.086 1131.62 404.378 1131.97 404.363L1132.56 404.347C1132.91 404.332 1133.17 404.04 1133.17 403.67Z" fill="#DD821F"/>
<path d="M1140.34 400.147L1140.11 395.302C1140.1 394.933 1139.82 394.64 1139.47 394.656L1138.88 394.671C1138.55 394.687 1138.27 394.979 1138.27 395.348L1138.5 400.193C1138.52 400.562 1138.79 400.855 1139.14 400.839L1139.73 400.824C1140.08 400.809 1140.34 400.516 1140.34 400.147Z" fill="#DD821F"/>
<path d="M1147.54 397.994L1147.31 393.349C1147.3 392.979 1147.02 392.687 1146.67 392.702L1146.08 392.718C1145.75 392.733 1145.47 393.025 1145.47 393.395L1145.7 398.04C1145.72 398.409 1145.99 398.701 1146.34 398.686L1146.93 398.67C1147.28 398.67 1147.55 398.363 1147.54 397.994Z" fill="#DD821F"/>
<path d="M1154.78 397.255L1154.56 392.532C1154.54 392.163 1154.27 391.871 1153.92 391.886L1153.33 391.902C1152.99 391.917 1152.72 392.209 1152.72 392.578L1152.95 397.301C1152.96 397.67 1153.24 397.962 1153.58 397.947L1154.18 397.931C1154.51 397.931 1154.78 397.624 1154.78 397.255Z" fill="#DD821F"/>
<path d="M1162.03 397.405L1161.8 392.975C1161.79 392.606 1161.51 392.314 1161.16 392.329L1160.57 392.344C1160.24 392.36 1159.96 392.652 1159.96 393.021L1160.19 397.451C1160.21 397.82 1160.48 398.112 1160.83 398.097L1161.42 398.082C1161.77 398.082 1162.05 397.774 1162.03 397.405Z" fill="#DD821F"/>
<path d="M1169.34 399.022L1169.12 394.731C1169.11 394.362 1168.84 394.069 1168.49 394.085L1167.89 394.1C1167.56 394.116 1167.29 394.408 1167.29 394.777L1167.5 399.068C1167.51 399.438 1167.79 399.73 1168.14 399.714L1168.73 399.699C1169.06 399.699 1169.34 399.391 1169.34 399.022Z" fill="#DD821F"/>
<path d="M1176.67 402.62L1176.45 397.975C1176.43 397.606 1176.16 397.314 1175.81 397.329L1175.22 397.344C1174.88 397.36 1174.61 397.652 1174.61 398.021L1174.84 402.666C1174.85 403.036 1175.12 403.328 1175.47 403.312L1176.07 403.297C1176.42 403.297 1176.67 402.989 1176.67 402.62Z" fill="#DD821F"/>
</g>
<defs>
<radialGradient id="paint0_radial_0_58" cx="0" cy="0" r="1" gradientUnits="userSpaceOnUse" gradientTransform="translate(1531.48 -0.335464) rotate(180) scale(1097.62 1111.72)">
<stop stop-color="#FF2C9C"/>
<stop offset="0.0301" stop-color="#F62F9F"/>
<stop offset="0.2023" stop-color="#C63EB0"/>
<stop offset="0.3737" stop-color="#9E4BBE"/>
<stop offset="0.5413" stop-color="#7F54C9"/>
<stop offset="0.7039" stop-color="#695BD1"/>
<stop offset="0.8594" stop-color="#5C60D5"/>
<stop offset="1" stop-color="#5761D7"/>
</radialGradient>
<linearGradient id="paint1_linear_0_58" x1="1035.52" y1="465.471" x2="873.781" y2="468.555" gradientUnits="userSpaceOnUse">
<stop stop-color="#5761D7"/>
<stop offset="0.0398" stop-color="#5C66D9"/>
<stop offset="0.0867" stop-color="#6A73DF"/>
<stop offset="0.1372" stop-color="#8289E8"/>
<stop offset="0.1899" stop-color="#A3A7F5"/>
<stop offset="0.2237" stop-color="#BCBEFF"/>
</linearGradient>
<linearGradient id="paint2_linear_0_58" x1="987.49" y1="380.727" x2="924.271" y2="477.762" gradientUnits="userSpaceOnUse">
<stop stop-color="#C0BFF6"/>
<stop offset="0.2938" stop-color="#C5C4F7"/>
<stop offset="0.6399" stop-color="#D3D2F9"/>
<stop offset="1" stop-color="#E9E9FD"/>
</linearGradient>
<linearGradient id="paint3_linear_0_58" x1="1135.46" y1="204.556" x2="963.585" y2="493.745" gradientUnits="userSpaceOnUse">
<stop stop-color="#C0BFF6"/>
<stop offset="0.1172" stop-color="#D0CFF9"/>
<stop offset="0.2627" stop-color="#E9E9FD"/>
<stop offset="0.5143" stop-color="#C0BFF6"/>
<stop offset="0.6217" stop-color="#D0CFF9"/>
<stop offset="0.755" stop-color="#E9E9FD"/>
<stop offset="1" stop-color="#C0BFF6"/>
</linearGradient>
<clipPath id="clip0_0_58">
<rect width="1440" height="804" fill="white"/>
</clipPath>
</defs>
</svg>
