<svg width="255" height="30" viewBox="0 0 255 30" fill="none" xmlns="http://www.w3.org/2000/svg">
<path d="M17.8727 24.6969H5.59053V18.1454H17.8727C20.9419 18.1454 22.5107 19.6168 22.5107 21.5225C22.5107 23.3597 20.9761 24.6969 17.8727 24.6969ZM17.4734 14.6368H5.59053V9.1197H17.4734C20.7079 9.1197 21.9772 10.2626 21.9772 11.8283C21.9772 13.2654 20.5083 14.6368 17.4734 14.6368ZM20.611 16.3083C25.7851 16.1397 27.6534 13.5654 27.6534 10.7597C27.6506 7.68256 25.2146 5.14256 19.2733 5.14256H0.285156V28.6083H19.8408C24.7127 28.6083 28.3522 26.5712 28.3522 22.1912C28.3522 19.0826 26.3158 16.4426 20.6081 16.3083H20.611ZM33.478 5.14256V28.6083H38.7919V5.14256H33.478ZM61.1457 9.58827H72.8404V5.14256H44.1715V9.58827H55.8518V28.6083H61.1571L61.1457 9.58827ZM78.2256 5.14256V28.6083H83.531V19.4654H95.9815V15.6054H83.531V9.18827H103.757V5.14256H78.2256ZM109.482 5.14256V28.6083H114.787V5.14256H109.482ZM125.517 10.8568L143.102 28.6054H149.11V5.14256H143.872V22.0569L126.984 5.14256H120.244V28.6083H125.517V10.8568ZM154.569 5.14256V28.6083H180.526V24.6654H159.874V18.214H172.256V14.5712H159.874V9.18827H180.53V5.14256H154.569ZM217.207 5.14256H210.198L201.256 13.3997L192.377 5.14256H185.269L197.75 16.7082L184.801 28.6083H191.812L201.188 19.9511L210.532 28.6083H217.663L204.693 16.6739L217.207 5.14256Z" fill="#A4A4A4"/>
<path d="M253.882 0.571582C253.776 0.525868 242.834 -0.96556 232.018 6.00015C225.305 10.3344 224.415 16.6744 224.722 20.903C240.453 19.1601 253.525 1.0773 253.882 0.571582ZM225.789 25.6001C227.141 27.983 237.361 33.3859 246.409 25.9345C255.457 18.4831 254.698 4.92586 253.882 0.571582C253.596 1.20301 243.719 22.8716 225.789 25.5973" fill="#A4A4A4"/>
<path d="M253.882 0.571432C253.776 0.528575 242.834 -0.965711 232.018 6.00001C225.305 10.3343 224.415 16.6743 224.722 20.9C240.453 19.16 253.525 1.07715 253.882 0.571432Z" fill="#5B5B5B"/>
</svg>
