<svg width="170" height="39" viewBox="0 0 170 39" fill="none" xmlns="http://www.w3.org/2000/svg">
<path d="M0 38.664H146.446V34.8391H0V38.664Z" fill="#A4A4A4"/>
<path d="M156.596 38.6604H169.171V34.8354H156.596V38.6604Z" fill="#A4A4A4"/>
<path d="M28.5339 29.0421H33.7782V9.35494H28.5339V29.0421ZM28.0264 3.67378C28.0264 2.77379 28.3083 2.04255 28.9286 1.42381C29.4925 0.861324 30.282 0.580078 31.1842 0.580078C32.1428 0.580078 32.8759 0.861324 33.4398 1.42381C34.0037 1.98631 34.3421 2.71754 34.3421 3.67378C34.3421 4.57376 34.0601 5.305 33.4398 5.92374C32.8759 6.48623 32.0865 6.76748 31.1842 6.76748C30.282 6.76748 29.5489 6.48623 28.9286 5.92374C28.3083 5.36125 28.0264 4.57376 28.0264 3.67378Z" fill="#333433"/>
<path d="M45.8452 9.29591H51.2023V13.2333H45.8452V22.6832C45.8452 23.5269 46.0708 24.2019 46.5783 24.7082C47.0858 25.2144 47.7061 25.4956 48.552 25.4956C49.2851 25.4956 50.1309 25.3832 51.0332 25.1582L51.7099 29.0393C50.1873 29.4331 48.7212 29.6581 47.3114 29.6581C46.3528 29.6581 45.4505 29.4893 44.6611 29.2081C43.8716 28.9268 43.1949 28.4769 42.5746 27.9144C42.0107 27.3519 41.5596 26.6769 41.2212 25.8894C40.8829 25.1019 40.7701 24.2582 40.7701 23.3019V13.3458H37.1611V9.40841H40.7701V3.61475H45.7889V9.29591H45.8452Z" fill="#333433"/>
<path d="M54.3039 14.754C54.3039 13.9103 54.4731 13.0665 54.8678 12.3353C55.2626 11.6041 55.7701 10.9853 56.3904 10.4228C57.0671 9.91658 57.8565 9.46659 58.7588 9.18534C59.661 8.9041 60.7324 8.73535 61.8039 8.73535C62.9317 8.73535 64.1158 8.84785 65.3 9.07285C66.4842 9.29784 67.7248 9.63534 68.9654 10.0853L67.8376 13.7978C66.879 13.404 65.9204 13.1228 64.9617 12.8978C64.0031 12.6728 63.1008 12.5603 62.255 12.5603C61.3527 12.5603 60.6197 12.729 60.0558 13.1228C59.4918 13.5165 59.2663 14.0228 59.2663 14.6978C59.2663 15.3165 59.5482 15.7665 60.0558 16.0477C60.5633 16.329 61.1836 16.6102 61.973 16.8352C62.7625 17.0602 63.5519 17.2852 64.4542 17.454C65.3564 17.679 66.2023 18.0165 66.9354 18.4664C67.7248 18.9164 68.3451 19.5352 68.8526 20.2664C69.3602 21.0539 69.6421 22.0664 69.6421 23.3039C69.6421 24.2039 69.4729 24.9913 69.0782 25.7788C68.6835 26.5101 68.176 27.1851 67.4993 27.7475C66.8226 28.31 66.0331 28.7038 65.0181 29.0413C64.0595 29.3225 62.9881 29.4913 61.8602 29.4913C59.4355 29.4913 56.8415 28.985 54.1348 27.9163L55.2062 24.2601C57.5182 25.2163 59.6046 25.6663 61.4655 25.6663C62.4241 25.6663 63.2136 25.4413 63.7775 25.0476C64.3414 24.6538 64.6234 24.0914 64.6234 23.3601C64.6234 22.7414 64.3414 22.2914 63.8339 21.9539C63.3264 21.6164 62.7061 21.3351 61.9166 21.1102C61.1272 20.8852 60.3377 20.6602 59.4355 20.4352C58.5332 20.2102 57.7437 19.8727 56.9543 19.4227C56.1648 18.9727 55.5445 18.4102 55.037 17.679C54.5295 17.004 54.3039 15.9915 54.3039 14.754Z" fill="#333433"/>
<path d="M80.187 9.29591H85.5441V13.2333H80.187V22.6832C80.187 23.5269 80.4126 24.2019 80.9201 24.7082C81.4276 25.2144 82.0479 25.4956 82.8938 25.4956C83.6269 25.4956 84.4727 25.3832 85.375 25.1582L86.0517 29.0393C84.5291 29.4331 83.063 29.6581 81.6532 29.6581C80.6946 29.6581 79.7923 29.4893 79.0029 29.2081C78.2134 28.9268 77.5367 28.4769 76.9164 27.9144C76.2961 27.3519 75.9014 26.6769 75.563 25.8894C75.2247 25.1019 75.1119 24.2582 75.1119 23.3019V13.3458H71.5029V9.40841H75.1119V3.61475H80.1307V9.29591H80.187Z" fill="#333433"/>
<path d="M93.8332 23.0244C93.8332 23.8119 94.1716 24.4869 94.7918 25.0493C95.4685 25.6118 96.258 25.8931 97.2166 25.8931C98.57 25.8931 99.6414 25.4431 100.487 24.5994C101.333 23.7556 101.728 22.6306 101.728 21.2807V20.0994C100.769 19.8182 99.6978 19.7057 98.5136 19.7057C97.0475 19.7057 95.9197 19.9869 95.0738 20.6057C94.2843 21.1682 93.8332 22.0119 93.8332 23.0244ZM88.9272 23.3056C88.9272 21.2244 89.7167 19.5932 91.2956 18.4682C92.8746 17.3432 95.0738 16.7807 97.9497 16.7807C98.57 16.7807 99.1903 16.837 99.8106 16.8932C100.431 16.9495 101.108 17.062 101.728 17.1745V16.1057C101.728 15.0933 101.39 14.2495 100.656 13.6308C99.9234 13.012 98.9647 12.6745 97.7241 12.6745C95.7505 12.6745 93.6076 13.1245 91.2956 14.0808L89.9987 10.4808C92.8182 9.35585 95.5813 8.84961 98.288 8.84961C99.5286 8.84961 100.6 9.01836 101.615 9.4121C102.63 9.74959 103.476 10.2558 104.209 10.9308C104.942 11.5496 105.506 12.3371 105.901 13.237C106.295 14.137 106.521 15.1495 106.521 16.2182V24.2619C106.521 24.7119 106.634 25.0494 106.859 25.2743C107.085 25.5556 107.423 25.6681 107.874 25.6681C108.1 25.6681 108.269 25.6681 108.495 25.6118C108.664 25.6118 108.833 25.5556 108.889 25.5556L109.228 29.3243C108.777 29.3805 108.382 29.493 107.931 29.5493C107.48 29.6055 107.029 29.6055 106.521 29.6055C105.506 29.6055 104.66 29.3805 103.927 28.8743C103.194 28.4243 102.686 27.7493 102.348 26.9056C101.502 27.7493 100.487 28.4243 99.4159 28.8743C98.288 29.3243 97.1602 29.5493 95.9197 29.5493C94.9046 29.5493 93.946 29.3805 93.1001 29.0993C92.2543 28.818 91.5212 28.368 90.9009 27.8056C90.2806 27.2431 89.8295 26.6243 89.4911 25.8368C89.0964 25.0494 88.9272 24.2056 88.9272 23.3056Z" fill="#333433"/>
<path d="M112.161 9.24159H116.221L116.841 11.9416C117.631 10.9291 118.533 10.1416 119.661 9.57909C120.789 9.0166 121.973 8.73535 123.27 8.73535C124.736 8.73535 125.977 9.07285 127.104 9.69159C128.176 10.3103 129.022 11.2103 129.585 12.3353C130.488 11.1541 131.559 10.2541 132.743 9.63534C133.928 9.0166 135.225 8.73535 136.691 8.73535C137.762 8.73535 138.721 8.9041 139.623 9.24159C140.525 9.57909 141.315 10.0853 141.935 10.7603C142.612 11.3791 143.119 12.1665 143.458 13.0665C143.796 13.9665 144.021 14.9228 144.021 15.9915V29.0413H138.89V16.8352C138.89 15.7102 138.552 14.8103 137.818 14.079C137.085 13.404 136.183 13.0103 135.055 13.0103C133.758 13.0103 132.687 13.4603 131.841 14.3603C130.995 15.2602 130.601 16.3852 130.601 17.8477V29.0413H125.469V16.8352C125.469 15.7102 125.131 14.8103 124.454 14.079C123.777 13.404 122.875 13.0103 121.747 13.0103C120.394 13.0103 119.322 13.4603 118.477 14.3603C117.631 15.2602 117.236 16.3852 117.236 17.8477V29.0413H112.104V9.24159H112.161Z" fill="#333433"/>
<path d="M163.532 19.0852C163.532 18.1852 163.419 17.3415 163.137 16.554C162.911 15.7665 162.517 15.0915 162.065 14.5853C161.614 14.0228 161.107 13.629 160.487 13.2915C159.866 12.954 159.19 12.8415 158.456 12.8415C157.103 12.8415 156.032 13.2915 155.129 14.2478C154.284 15.1477 153.832 16.329 153.832 17.7915V20.4352C153.832 21.1664 153.945 21.8414 154.171 22.4039C154.396 23.0226 154.735 23.5289 155.129 23.9789C155.524 24.4289 156.032 24.7663 156.596 24.9913C157.159 25.2163 157.78 25.3288 158.456 25.3288C159.19 25.3288 159.866 25.1601 160.487 24.8788C161.107 24.5976 161.614 24.1476 162.065 23.5851C162.517 23.0226 162.855 22.3476 163.137 21.6164C163.419 20.8852 163.532 19.9852 163.532 19.0852ZM148.87 9.24159H152.93L153.551 11.7728C154.284 10.8166 155.129 10.0853 156.201 9.52284C157.272 9.0166 158.456 8.73535 159.753 8.73535C161.05 8.73535 162.235 9.0166 163.362 9.52284C164.434 10.0291 165.392 10.7603 166.182 11.6603C166.971 12.5603 167.592 13.629 168.043 14.9228C168.494 16.1602 168.72 17.5665 168.72 19.0852C168.72 20.6039 168.494 22.0101 168.043 23.2476C167.592 24.4851 166.971 25.6101 166.182 26.5101C165.392 27.4101 164.434 28.1413 163.362 28.6475C162.291 29.1538 161.05 29.435 159.753 29.435C158.569 29.435 157.441 29.21 156.483 28.76C155.468 28.31 154.622 27.6351 153.945 26.7351V38.7161H148.87V9.24159Z" fill="#333433"/>
<path d="M17.2555 23.9735C16.466 24.761 15.3946 25.0985 14.0412 25.0985H7.72548V16.9424H14.0412C15.3382 16.9424 16.4096 17.3361 17.2555 18.0674C18.0449 18.7986 18.4397 19.8111 18.4397 20.9923C18.496 22.2298 18.1013 23.2423 17.2555 23.9735ZM7.72548 5.91757H13.5337C14.7179 5.91757 15.6765 6.25506 16.466 6.9863C17.2555 7.66128 17.5938 8.61752 17.5938 9.7425C17.5938 10.8675 17.1991 11.7675 16.466 12.4425C15.6765 13.1174 14.7179 13.4549 13.5337 13.4549H7.72548V5.91757ZM22.4434 17.4486C21.5975 16.2674 20.4697 15.4237 19.0599 14.9174C20.1877 14.4112 21.0336 13.6799 21.7103 12.6675C22.387 11.655 22.7253 10.4737 22.7253 9.12376C22.7253 8.05503 22.4998 7.0988 22.105 6.25506C21.7103 5.35507 21.09 4.62384 20.3569 4.0051C19.6238 3.38636 18.7216 2.88011 17.7066 2.54262C16.6915 2.20513 15.5637 2.03638 14.3231 2.03638H0V5.63632C2.19922 5.63632 3.94732 7.43629 3.94732 9.63001C3.94732 11.8237 2.19922 13.6237 0 13.6237V16.8861C2.19922 16.8861 3.94732 18.6861 3.94732 20.8798V21.4986C3.94732 23.6923 2.19922 25.4923 0 25.4923V29.0922H14.9434C16.2404 29.0922 17.3682 28.9234 18.4397 28.5297C19.5111 28.1922 20.4133 27.686 21.2028 27.011C21.9922 26.336 22.6125 25.5485 23.0073 24.6485C23.4584 23.7485 23.6839 22.736 23.6839 21.6111C23.6839 19.9798 23.2892 18.6299 22.4434 17.4486Z" fill="#333433"/>
</svg>
