<svg width="204" height="86" viewBox="0 0 204 86" fill="none" xmlns="http://www.w3.org/2000/svg">
<g clip-path="url(#clip0_0_374)">
<path d="M143.788 17.8998L139.444 34.7163L109.66 38.5519L143.788 17.8998Z" fill="#BABABA"/>
<path d="M151.851 85.733L159.252 55.19L149.652 51.2478L151.851 85.733Z" fill="#5B5B5B"/>
<path d="M139.445 34.6985L131.632 50.6803L109.75 38.6051L139.445 34.6985Z" fill="#D5D6D7"/>
<path d="M151.851 85.7334L149.652 51.2481L131.542 50.6266L151.851 85.7334Z" fill="#BCBABA"/>
<path d="M139.444 34.6985L149.742 51.2308L131.632 50.627L139.444 34.6985Z" fill="#5B5B5B"/>
<path d="M143.789 17.8998L168.442 20.9719L139.444 34.7163L143.789 17.8998Z" fill="#ACA9A9"/>
<path d="M195.401 10.2462L179.901 28.1458L180.991 11.5958L195.401 10.2462Z" fill="#ACA9A9"/>
<path d="M204 0L195.401 10.2461L202.123 11.063L204 0Z" fill="#ACA9A9"/>
<path d="M187.052 19.5332L202.122 11.045L195.401 10.2282L187.052 19.5332Z" fill="#AFAFAF"/>
<path d="M159.252 55.19L159.985 34.6444L149.652 51.2478L159.252 55.19Z" fill="#BCBABA"/>
<path d="M159.985 34.6444L149.652 51.2477L139.444 34.7154L159.985 34.6444Z" fill="#5B5B5B"/>
<path d="M168.442 20.9722L159.986 34.6456L139.444 34.7166L168.442 20.9722Z" fill="#BABABA"/>
<path d="M159.985 34.6444L159.252 55.19L178.167 74.4037L159.985 34.6444Z" fill="#D2D2D2"/>
<path d="M188.053 63.6606L178.06 39.0664L178.167 74.4217L188.053 63.6606Z" fill="#5B5B5B"/>
<path d="M179.901 28.1458L178.06 39.0667L159.986 34.6451L179.901 28.1458Z" fill="#5B5B5B"/>
<path d="M189.054 42.9552L178.06 39.0663L179.847 28.1631L189.054 42.9552Z" fill="#D2D2D2"/>
<path d="M193.077 62.9857L181.099 43.9141H187.946L193.077 62.9857Z" fill="#ACA9A9"/>
<path d="M170.694 16.9051L179.901 28.1456L180.992 11.5956L170.694 16.9051Z" fill="#BABABA"/>
<path d="M178.06 39.0661L159.986 34.6444L178.167 74.4037L178.06 39.0661Z" fill="#5B5B5B"/>
<path d="M188.053 63.6608L192.04 65.8805L178.203 74.4041L188.053 63.6608Z" fill="#BCBABA"/>
<path d="M193.077 62.755L178.06 39.0664L188.053 63.6784L193.077 62.755Z" fill="#BABABA"/>
<path d="M170.694 16.9053L159.967 34.6629L179.883 28.1636L170.694 16.9053Z" fill="#ACA9A9"/>
<path d="M28.0495 69.1305L30.9456 70.6044L33.8597 69.1305V85.7338H28.0495V69.1305ZM27.6025 63.5191C27.6621 62.696 28.0471 61.9296 28.6734 61.3874C29.2997 60.8451 30.1166 60.5709 30.9456 60.6246C31.3666 60.5589 31.7968 60.5846 32.2068 60.6999C32.6168 60.8151 32.9968 61.0172 33.3207 61.2923C33.6445 61.5673 33.9045 61.9088 34.0828 62.2933C34.261 62.6777 34.3533 63.0959 34.3533 63.5191C34.3533 63.9423 34.261 64.3606 34.0828 64.745C33.9045 65.1294 33.6445 65.4709 33.3207 65.7459C32.9968 66.021 32.6168 66.2231 32.2068 66.3384C31.7968 66.4536 31.3666 66.4793 30.9456 66.4136C30.5383 66.4451 30.1287 66.3967 29.7402 66.2709C29.3517 66.1452 28.992 65.9447 28.6816 65.6809C28.3711 65.417 28.116 65.095 27.9309 64.7332C27.7458 64.3715 27.6342 63.977 27.6025 63.5724V63.5191Z" fill="#A4A4A4"/>
<path d="M14.4093 60.3753V70.0888H6.32863V60.3753H0V85.7332H6.32863V75.9843H14.4093V85.7332H20.7379V60.3753H14.4093Z" fill="#A4A4A4"/>
<path d="M47.2146 85.7332H41.3686V73.1253H39.0981V67.6738H41.3686V61.6007H47.2146V67.6738H49.485V73.1253H47.2146V85.7332Z" fill="#A4A4A4"/>
<path d="M61.749 79.9087H66.9156C68.9358 79.9087 69.5615 78.6834 69.5615 77.6357C69.5615 76.588 68.9 75.3983 66.9156 75.3983H61.749V79.9087ZM61.749 70.1243H66.4687C66.727 70.162 66.9902 70.1486 67.2433 70.0851C67.4965 70.0216 67.7345 69.909 67.9437 69.754C68.153 69.5989 68.3294 69.4044 68.4628 69.1815C68.5962 68.9586 68.684 68.7117 68.7213 68.455C68.7301 68.3605 68.7301 68.2654 68.7213 68.1709C68.7213 67.4961 68.3458 66.2176 66.4508 66.2176H61.749V70.1243ZM65.7715 60.3753C73.4767 60.3753 74.7102 64.9213 74.7102 67.2298C74.7712 68.3355 74.4973 69.434 73.9237 70.3836C73.3501 71.3332 72.5032 72.0902 71.4923 72.5571C72.7108 72.9204 73.7689 73.684 74.4932 74.7229C75.2175 75.7618 75.5651 77.0142 75.4789 78.275C75.4789 82.2527 73.1728 85.6799 65.5391 85.6799H55.4204V60.3753H65.7715Z" fill="#5B5B5B"/>
<path d="M91.8011 85.7332H85.4725V66.1998H78.8042V60.3753H98.4694V66.1466H91.8011V85.7332Z" fill="#5B5B5B"/>
<path d="M124.82 64.3891L120.727 68.0649C119.143 66.6815 117.097 65.9343 114.988 65.9695C114.099 65.9483 113.214 66.1016 112.385 66.4205C111.556 66.7395 110.798 67.2179 110.156 67.8282C109.513 68.4386 108.998 69.169 108.64 69.9775C108.282 70.786 108.088 71.6568 108.069 72.5398C108.051 72.717 108.051 72.8954 108.069 73.0726C108.016 73.953 108.138 74.8351 108.428 75.6687C108.718 76.5023 109.171 77.2708 109.761 77.9305C110.35 78.5901 111.064 79.128 111.863 79.5132C112.662 79.8984 113.529 80.1235 114.416 80.1756H114.988C117.09 80.2307 119.138 79.5022 120.727 78.1335L124.82 81.8093C123.554 83.135 122.029 84.1903 120.339 84.9109C118.648 85.6314 116.828 86.002 114.988 86.0001C111.546 86.0001 108.244 84.6418 105.81 82.2241C103.376 79.8064 102.009 76.5272 102.009 73.1081C102.009 69.6889 103.376 66.4098 105.81 63.9921C108.244 61.5743 111.546 60.2161 114.988 60.2161C116.827 60.2066 118.649 60.5721 120.34 61.2899C122.031 62.0076 123.556 63.0625 124.82 64.3891Z" fill="#5B5B5B"/>
</g>
<defs>
<clipPath id="clip0_0_374">
<rect width="204" height="86" fill="white"/>
</clipPath>
</defs>
</svg>
