<svg width="40" height="40" viewBox="0 0 40 40" fill="none" xmlns="http://www.w3.org/2000/svg">
<path d="M9.375 20.625H11.25V21.875H9.375V20.625Z" fill="#3355FF"/>
<path d="M13.75 23.75H15.625V25H13.75V23.75Z" fill="#3355FF"/>
<path d="M9.375 23.75H12.5V25H9.375V23.75Z" fill="#3355FF"/>
<path d="M4.375 23.75H8.125V25H4.375V23.75Z" fill="#3355FF"/>
<path d="M8.125 26.875H15.625V28.125H8.125V26.875Z" fill="#3355FF"/>
<path d="M4.375 26.875H6.875V28.125H4.375V26.875Z" fill="#3355FF"/>
<path d="M11.875 30H15.625V31.25H11.875V30Z" fill="#3355FF"/>
<path d="M4.375 30H10.625V31.25H4.375V30Z" fill="#3355FF"/>
<path d="M8.125 33.125H11.875V34.375H8.125V33.125Z" fill="#3355FF"/>
<path d="M4.375 33.125H6.875V34.375H4.375V33.125Z" fill="#3355FF"/>
<path d="M37.5 18.7499C37.5 18.5841 37.4342 18.4252 37.317 18.3079C37.1997 18.1907 37.0408 18.1249 36.875 18.1249H33.125C32.9593 18.1249 32.8003 18.1907 32.6831 18.3079C32.5659 18.4252 32.5 18.5841 32.5 18.7499V21.8749H29.375C29.2093 21.8749 29.0503 21.9407 28.9331 22.0579C28.8159 22.1752 28.75 22.3341 28.75 22.4999V25.6249H25.625C25.4592 25.6249 25.3003 25.6907 25.1831 25.8079C25.0659 25.9252 25 26.0841 25 26.2499V29.3749H21.875C21.7092 29.3749 21.5503 29.4407 21.4331 29.5579C21.3159 29.6752 21.25 29.8341 21.25 29.9999V33.7499H16.7675C16.6201 33.3329 16.3299 32.9814 15.9484 32.7576C15.5669 32.5338 15.1186 32.4521 14.6827 32.5269C14.2467 32.6017 13.8513 32.8282 13.5662 33.1663C13.2811 33.5045 13.1247 33.9326 13.1247 34.3749C13.1247 34.8172 13.2811 35.2453 13.5662 35.5834C13.8513 35.9216 14.2467 36.1481 14.6827 36.2229C15.1186 36.2977 15.5669 36.216 15.9484 35.9922C16.3299 35.7684 16.6201 35.4169 16.7675 34.9999H17.5V36.8749C17.4998 37.0406 17.4339 37.1994 17.3167 37.3166C17.1996 37.4338 17.0407 37.4997 16.875 37.4999H3.12501C2.95931 37.4997 2.80044 37.4338 2.68327 37.3166C2.56611 37.1994 2.5002 37.0406 2.50001 36.8749V22.4999H5.62501C6.12211 22.4993 6.5987 22.3016 6.9502 21.9501C7.30171 21.5986 7.49944 21.122 7.50001 20.6249V17.4999H16.875C17.0407 17.5001 17.1996 17.566 17.3167 17.6832C17.4339 17.8003 17.4998 17.9592 17.5 18.1249V18.7499H18.75V18.1249C18.7494 17.6278 18.5517 17.1512 18.2002 16.7997C17.8487 16.4482 17.3721 16.2505 16.875 16.2499H7.39274C7.14641 16.2492 6.90239 16.2974 6.67481 16.3917C6.44723 16.486 6.24061 16.6244 6.0669 16.7991L1.79917 21.0668C1.62452 21.2405 1.48605 21.4472 1.39178 21.6747C1.29752 21.9023 1.24933 22.1463 1.25001 22.3927V36.8749C1.25058 37.372 1.4483 37.8486 1.79981 38.2001C2.15132 38.5516 2.6279 38.7493 3.12501 38.7499H16.875C17.3721 38.7493 17.8487 38.5516 18.2002 38.2001C18.5517 37.8486 18.7494 37.372 18.75 36.8749V34.9999H38.75V33.7499H37.5V18.7499ZM6.25001 18.3838V20.6249C6.24982 20.7906 6.18391 20.9494 6.06674 21.0666C5.94957 21.1838 5.79071 21.2497 5.62501 21.2499H3.38391L6.25001 18.3838ZM15 34.9999C14.8764 34.9999 14.7556 34.9632 14.6528 34.8946C14.55 34.8259 14.4699 34.7283 14.4226 34.6141C14.3753 34.4999 14.3629 34.3742 14.387 34.253C14.4111 34.1317 14.4707 34.0204 14.5581 33.9329C14.6455 33.8455 14.7568 33.786 14.8781 33.7619C14.9993 33.7378 15.125 33.7502 15.2392 33.7975C15.3534 33.8448 15.451 33.9249 15.5197 34.0277C15.5884 34.1304 15.625 34.2513 15.625 34.3749C15.6248 34.5406 15.5589 34.6994 15.4417 34.8166C15.3246 34.9338 15.1657 34.9997 15 34.9999V34.9999ZM22.5 30.6249H25V33.7499H22.5V30.6249ZM26.25 26.8749H28.75V33.7499H26.25V26.8749ZM30 23.1249H32.5V33.7499H30V23.1249ZM33.75 33.7499V19.3749H36.25V33.7499H33.75Z" fill="#3355FF"/>
<path d="M3.125 16.8758C3.44174 16.8759 3.75333 16.7957 4.03069 16.6428C4.30804 16.4898 4.54212 16.2691 4.71107 16.0012C4.88001 15.7332 4.97832 15.4269 4.9968 15.1107C5.01529 14.7945 4.95335 14.4788 4.81678 14.193L6.69212 12.3176C6.92932 12.431 7.18771 12.4932 7.45052 12.5002C7.71332 12.5072 7.97466 12.4588 8.21755 12.3582C8.46043 12.2576 8.67943 12.107 8.86032 11.9162C9.04121 11.7254 9.17993 11.4987 9.26748 11.2508H11.9825C12.121 11.6427 12.3857 11.9774 12.7351 12.2024C13.0845 12.4273 13.4988 12.5298 13.9128 12.4938C14.3268 12.4577 14.7171 12.285 15.0223 12.003C15.3275 11.721 15.5304 11.3455 15.5989 10.9356L19.1286 7.91025C19.5202 8.11582 19.9718 8.17634 20.4037 8.08112C20.8356 7.98591 21.22 7.74109 21.4888 7.38992C21.7577 7.03876 21.8938 6.60385 21.873 6.16207C21.8523 5.72028 21.676 5.30005 21.3754 4.97564C21.0748 4.65122 20.6692 4.4435 20.2303 4.38919C19.7914 4.33488 19.3474 4.43748 18.9768 4.67884C18.6062 4.92021 18.3328 5.28481 18.205 5.70821C18.0772 6.13162 18.1032 6.58657 18.2783 6.99268L15.2882 9.55561C15.0915 9.27232 14.8203 9.04885 14.5047 8.90981C14.189 8.77078 13.8411 8.72157 13.4993 8.76761C13.1574 8.81365 12.8349 8.95315 12.5673 9.17075C12.2997 9.38834 12.0973 9.67559 11.9825 10.0008H9.26748C9.18268 9.7608 9.04987 9.54055 8.87717 9.35352C8.70447 9.16648 8.49548 9.01658 8.26295 8.91295C8.03042 8.80932 7.77922 8.75413 7.52467 8.75075C7.27011 8.74737 7.01754 8.79587 6.78234 8.8933C6.54714 8.99072 6.33425 9.13502 6.15664 9.31741C5.97903 9.49979 5.84043 9.71644 5.74928 9.95414C5.65813 10.1918 5.61635 10.4456 5.62649 10.7C5.63662 10.9544 5.69845 11.204 5.80822 11.4337L3.93288 13.3091C3.67893 13.1878 3.40095 13.1252 3.11954 13.126C2.83813 13.1269 2.5605 13.191 2.30726 13.3137C2.05402 13.4364 1.83165 13.6146 1.65664 13.835C1.48164 14.0554 1.35848 14.3123 1.29632 14.5868C1.23415 14.8612 1.23457 15.1462 1.29753 15.4204C1.3605 15.6947 1.4844 15.9513 1.66004 16.1712C1.83569 16.391 2.05858 16.5686 2.31218 16.6905C2.56578 16.8125 2.84359 16.8759 3.125 16.8758V16.8758ZM20 5.62584C20.1236 5.62584 20.2444 5.6625 20.3472 5.73117C20.45 5.79985 20.5301 5.89746 20.5774 6.01166C20.6247 6.12587 20.6371 6.25153 20.613 6.37277C20.5889 6.49401 20.5293 6.60537 20.4419 6.69278C20.3545 6.78019 20.2432 6.83972 20.1219 6.86383C20.0007 6.88795 19.875 6.87557 19.7608 6.82827C19.6466 6.78096 19.549 6.70085 19.4803 6.59807C19.4117 6.49529 19.375 6.37445 19.375 6.25084C19.3752 6.08514 19.4411 5.92628 19.5583 5.80911C19.6754 5.69194 19.8343 5.62603 20 5.62584V5.62584ZM13.75 10.0008C13.8736 10.0008 13.9944 10.0375 14.0972 10.1062C14.2 10.1748 14.2801 10.2725 14.3274 10.3867C14.3747 10.5009 14.3871 10.6265 14.363 10.7478C14.3389 10.869 14.2793 10.9804 14.1919 11.0678C14.1045 11.1552 13.9932 11.2147 13.8719 11.2388C13.7507 11.2629 13.625 11.2506 13.5108 11.2033C13.3966 11.156 13.299 11.0759 13.2303 10.9731C13.1617 10.8703 13.125 10.7495 13.125 10.6258C13.1252 10.4601 13.1911 10.3013 13.3083 10.1841C13.4254 10.0669 13.5843 10.001 13.75 10.0008ZM7.5 10.0008C7.62361 10.0008 7.74445 10.0375 7.84723 10.1062C7.95001 10.1748 8.03012 10.2725 8.07742 10.3867C8.12473 10.5009 8.13711 10.6265 8.11299 10.7478C8.08887 10.869 8.02935 10.9804 7.94194 11.0678C7.85453 11.1552 7.74317 11.2147 7.62193 11.2388C7.50069 11.2629 7.37503 11.2506 7.26082 11.2033C7.14662 11.156 7.04901 11.0759 6.98033 10.9731C6.91166 10.8703 6.875 10.7495 6.875 10.6258C6.87519 10.4601 6.9411 10.3013 7.05827 10.1841C7.17544 10.0669 7.3343 10.001 7.5 10.0008V10.0008ZM3.125 14.3758C3.24861 14.3758 3.36945 14.4125 3.47223 14.4812C3.57501 14.5498 3.65512 14.6475 3.70242 14.7617C3.74973 14.8759 3.76211 15.0015 3.73799 15.1228C3.71387 15.244 3.65435 15.3554 3.56694 15.4428C3.47953 15.5302 3.36817 15.5897 3.24693 15.6138C3.12569 15.6379 3.00003 15.6256 2.88582 15.5783C2.77162 15.531 2.67401 15.4509 2.60533 15.3481C2.53665 15.2453 2.5 15.1245 2.5 15.0008C2.50019 14.8351 2.5661 14.6763 2.68327 14.5591C2.80044 14.4419 2.9593 14.376 3.125 14.3758V14.3758Z" fill="#3355FF"/>
<path d="M25.7471 15.8693L21.6159 20.0005H16.1423C15.9948 19.5835 15.7047 19.232 15.3232 19.0082C14.9417 18.7844 14.4934 18.7027 14.0574 18.7775C13.6215 18.8523 13.2261 19.0788 12.941 19.417C12.6559 19.7551 12.4995 20.1832 12.4995 20.6255C12.4995 21.0678 12.6559 21.4959 12.941 21.834C13.2261 22.1722 13.6215 22.3987 14.0574 22.4735C14.4934 22.5483 14.9417 22.4666 15.3232 22.2428C15.7047 22.019 15.9948 21.6675 16.1423 21.2505H17.4998V32.5005H18.7498V21.2505H21.8748C22.0406 21.2505 22.1995 21.1847 22.3168 21.0674L26.8275 16.5567C28.6871 17.5437 30.8566 17.7724 32.8812 17.1951C34.9058 16.6178 36.6283 15.2791 37.6877 13.4597C38.747 11.6404 39.0609 9.48156 38.5636 7.43583C38.0664 5.39011 36.7965 3.6163 35.0202 2.48623C33.2439 1.35616 31.0991 0.957576 29.0354 1.37403C26.9717 1.79048 25.1493 2.98963 23.9503 4.72011C22.7512 6.4506 22.2686 8.57806 22.6036 10.6565C22.9385 12.735 24.0651 14.6031 25.7471 15.8693L25.7471 15.8693ZM14.3748 21.2505C14.2512 21.2505 14.1303 21.2138 14.0276 21.1452C13.9248 21.0765 13.8447 20.9789 13.7974 20.8647C13.7501 20.7505 13.7377 20.6248 13.7618 20.5036C13.7859 20.3823 13.8454 20.271 13.9329 20.1836C14.0203 20.0962 14.1316 20.0366 14.2529 20.0125C14.3741 19.9884 14.4998 20.0008 14.614 20.0481C14.7282 20.0954 14.8258 20.1755 14.8945 20.2783C14.9631 20.3811 14.9998 20.5019 14.9998 20.6255C14.9996 20.7912 14.9337 20.9501 14.8165 21.0672C14.6994 21.1844 14.5405 21.2503 14.3748 21.2505V21.2505ZM35.6381 14.0747L32.0166 10.0005H37.4711C37.3324 11.5252 36.6871 12.9596 35.6381 14.0747V14.0747ZM37.4711 8.7505H31.2498V2.52921C32.8497 2.67752 34.3474 3.38061 35.4835 4.51676C36.6197 5.65292 37.3228 7.1506 37.4711 8.7505V8.7505ZM29.9998 2.52921V9.3755C29.9998 9.52854 30.0561 9.67622 30.1582 9.79028L30.1576 9.79073L34.7043 14.9057C33.8509 15.5353 32.8635 15.9589 31.8192 16.1434C30.7748 16.3279 29.702 16.2682 28.6846 15.9691C27.6672 15.67 26.7328 15.1395 25.9545 14.4191C25.1762 13.6988 24.5751 12.8081 24.1983 11.8168C23.8215 10.8256 23.6792 9.76053 23.7825 8.70509C23.8858 7.64964 24.2319 6.63241 24.7937 5.73298C25.3555 4.83355 26.1178 4.07631 27.021 3.52052C27.9242 2.96472 28.9437 2.62544 29.9998 2.52921V2.52921Z" fill="#3355FF"/>
</svg>
