<svg width="40" height="41" viewBox="0 0 40 41" fill="none" xmlns="http://www.w3.org/2000/svg">
<path d="M1.03197 33.3365C0.898637 33.3365 0.823635 33.3348 0.810301 33.3348C0.350286 33.3215 -0.0113925 32.9382 0.000274505 32.4783C0.0136083 32.0183 0.38362 31.6883 0.856969 31.6683C1.13364 31.665 29.4396 32.1683 35.8598 7.29582C35.9748 6.8492 36.4281 6.58423 36.8748 6.69755C37.3198 6.81254 37.5882 7.26749 37.4732 7.71245C31.0296 32.6816 3.77873 33.3365 1.03197 33.3365Z" fill="#3355FF"/>
<path d="M39.1682 12.665C38.8799 12.665 38.5998 12.5166 38.4448 12.2483L36.3614 8.63985L32.753 10.7232C32.3546 10.9516 31.8446 10.8166 31.6146 10.4182C31.3846 10.0199 31.5213 9.50987 31.9196 9.27987L36.2498 6.77978C36.6464 6.54811 37.1565 6.68478 37.3881 7.08479L39.8882 11.4149C40.1182 11.8133 39.9816 12.3233 39.5832 12.5533C39.4532 12.63 39.3099 12.665 39.1682 12.665Z" fill="#3355FF"/>
<path d="M35.8348 40.0006C35.3748 40.0006 35.0015 39.6273 35.0015 39.1674V17.5029C35.0015 17.043 35.3748 16.6697 35.8348 16.6697C36.2948 16.6697 36.6682 17.043 36.6682 17.5029V39.1674C36.6682 39.6273 36.2948 40.0006 35.8348 40.0006Z" fill="#3355FF"/>
<path d="M25.8343 40.0014C25.3743 40.0014 25.001 39.6281 25.001 39.1682V29.1692C25.001 28.7092 25.3743 28.3359 25.8343 28.3359C26.2944 28.3359 26.6677 28.7092 26.6677 29.1692V39.1682C26.6677 39.6281 26.2944 40.0014 25.8343 40.0014Z" fill="#3355FF"/>
<path d="M15.8343 40.0023C15.3743 40.0023 15.001 39.629 15.001 39.169V34.1688C15.001 33.7088 15.3743 33.3354 15.8343 33.3354C16.2944 33.3354 16.6677 33.7088 16.6677 34.1688V39.169C16.6677 39.629 16.2944 40.0023 15.8343 40.0023Z" fill="#3355FF"/>
<path d="M5.83385 40.0018C5.37383 40.0018 5.00049 39.6284 5.00049 39.1684V36.6683C5.00049 36.2083 5.37383 35.835 5.83385 35.835C6.29386 35.835 6.66721 36.2083 6.66721 36.6683V39.1684C6.66721 39.6284 6.29386 40.0018 5.83385 40.0018Z" fill="#3355FF"/>
<path d="M12.0976 19.7319C11.8843 19.7319 11.6709 19.6503 11.5076 19.4886L5.51407 13.4942C5.20072 13.1809 5.18739 12.676 5.48406 12.3477L10.3942 6.89657C13.8827 2.86865 19.4162 0.0922656 24.153 0.00394131C24.3497 -0.0227226 24.598 0.0889326 24.758 0.24725C24.918 0.4089 25.0047 0.627211 25.0014 0.852188C24.913 5.58837 22.1363 11.1211 18.0945 14.6191L12.6543 19.5186C12.4976 19.6619 12.2976 19.7319 12.0976 19.7319ZM7.25246 12.876L12.1293 17.7521L16.9928 13.3709C20.4529 10.3762 22.8963 5.80168 23.283 1.7221C19.2028 2.10873 14.6294 4.55181 11.6443 7.99979L7.25246 12.876Z" fill="#3355FF"/>
<path d="M14.3411 23.6867C14.2661 23.6867 14.1894 23.6767 14.1144 23.655C13.8244 23.5717 13.601 23.3417 13.5294 23.0467L12.351 18.1306C12.2443 17.684 12.521 17.234 12.9677 17.1257C13.4194 17.0207 13.866 17.2957 13.9727 17.7423L14.7544 21.0069C16.2028 18.7422 16.4911 15.8441 16.5211 14.1493C16.5295 13.6894 16.9261 13.3294 17.3695 13.3311C17.8295 13.3377 18.1962 13.7194 18.1879 14.1776C18.1179 18.1206 16.9611 21.4102 14.9294 23.4417C14.7711 23.6 14.5577 23.6867 14.3411 23.6867Z" fill="#3355FF"/>
<path d="M7.06874 12.6769C7.00373 12.6769 6.93873 12.6703 6.87373 12.6536L1.9569 11.4752C1.66356 11.4052 1.43022 11.1836 1.34855 10.8919C1.26688 10.6019 1.34855 10.2902 1.56022 10.0769C3.59196 8.04513 6.88206 6.88842 10.8272 6.81842C11.2889 6.77675 11.6672 7.17676 11.6739 7.63678C11.6806 8.09679 11.3172 8.47681 10.8555 8.48514C9.1588 8.51514 6.26204 8.80348 3.99697 10.2519L7.26208 11.0336C7.70876 11.1402 7.98543 11.5902 7.87876 12.0386C7.78543 12.4203 7.44542 12.6769 7.06874 12.6769Z" fill="#3355FF"/>
<path d="M0.833719 25.0038C0.615379 25.0038 0.403706 24.9171 0.2437 24.7605C0.0270267 24.5439 -0.0529759 24.2256 0.0353603 23.9322C0.310369 23.0123 1.74042 18.3695 2.86045 17.2496C4.20883 15.8997 6.4039 15.8981 7.75728 17.2496C9.10732 18.5995 9.10732 20.7959 7.75728 22.1458C6.63891 23.2656 1.99376 24.6938 1.07373 24.9688C0.993725 24.9921 0.913722 25.0038 0.833719 25.0038ZM5.30886 17.9029C4.84885 17.9029 4.38883 18.0778 4.03882 18.4278C3.56547 18.9011 2.75211 20.9875 2.11543 22.889C4.01716 22.2524 6.10556 21.4392 6.57724 20.9675C7.27726 20.2676 7.27726 19.1277 6.57724 18.4295C6.22723 18.0778 5.76721 17.9029 5.30886 17.9029Z" fill="#3355FF"/>
</svg>
