<svg width="40" height="40" viewBox="0 0 40 40" fill="none" xmlns="http://www.w3.org/2000/svg">
<g clip-path="url(#clip0_0_5138)">
<path d="M24.6667 33.2333H22.7667V29.4333H30.5667V35.3333C30.5667 36.4931 31.5069 37.4333 32.6667 37.4333H38C39.1598 37.4333 40.1 36.4931 40.1 35.3333V22C40.1 20.8401 39.1598 19.9 38 19.9H37.4333V5.99996V5.99984C37.4311 4.10471 35.8953 2.56886 34.0001 2.56663H34L6 2.56663L5.99988 2.56663C4.10475 2.56886 2.5689 4.10471 2.56667 5.99984V5.99996V15.9H2C0.840188 15.9 -0.1 16.8401 -0.1 18V35.3333C-0.1 36.4931 0.840188 37.4333 2 37.4333H27.3333C27.7567 37.4333 28.1 37.09 28.1 36.6666V36.6665C28.0978 34.7714 26.5619 33.2355 24.6668 33.2333H24.6667ZM16.1 35.3333V34.7666H24.6665C25.4234 34.7675 26.1028 35.2159 26.4053 35.9H16.0158C16.0697 35.7164 16.0981 35.5261 16.1 35.3343V35.3333ZM4.1 15.9V5.99996C4.1 4.9506 4.95065 4.09996 6 4.09996H34C35.0494 4.09996 35.9 4.9506 35.9 5.99996V19.9H32.6667C31.5069 19.9 30.5667 20.8401 30.5667 22V22.5666H16.1L16.1 18L16.1 17.9992C16.0978 17.6943 16.0284 17.3939 15.8973 17.1194L17.9775 15.0392C18.4053 14.627 18.8607 14.1804 19.3111 13.7341C20.1507 12.9022 20.974 12.0707 21.5714 11.4637C21.87 11.1602 22.1123 10.9129 22.2718 10.7496L22.4459 10.5714L22.4692 10.5475L22.4754 10.5413L22.4754 10.5413L22.4766 10.5401L22.4844 10.5319L22.4864 10.5298C22.4929 10.5217 22.4746 10.3854 22.3448 10.389L22.3412 10.3923L22.3404 10.3932L22.3372 10.3964L22.327 10.4068L17.8373 14.8965C17.4693 15.2511 17.1219 15.5799 16.8161 15.8607C16.4854 16.1642 16.2049 16.4102 15.9996 16.5717C15.8964 16.653 15.8155 16.7103 15.7584 16.7431C15.7456 16.7505 15.735 16.756 15.7265 16.76C15.5785 16.6 15.5523 16.4741 15.5385 16.4079L15.5379 16.4053C15.5377 16.404 15.5374 16.4026 15.5371 16.4011C15.534 16.3859 15.5286 16.3595 15.5189 16.3389C15.5129 16.3261 15.499 16.3009 15.4693 16.2843C15.4358 16.2656 15.4023 16.2687 15.3801 16.2755C15.3603 16.2815 15.3446 16.2916 15.3348 16.2986C15.324 16.3063 15.3132 16.3153 15.3029 16.3244C15.2963 16.3303 15.2891 16.3368 15.2813 16.3441L14.8933 16.1002C14.8876 16.0956 14.8811 16.0915 14.8741 16.0881L14.8219 16.0553L14.8105 16.0672C14.5545 15.9577 14.279 15.9008 14.0003 15.9H14H4.1ZM14.9295 16.1988L14.9295 16.1987L14.9295 16.1988ZM15.6992 16.7702C15.6993 16.7701 15.7003 16.7698 15.7021 16.7696C15.7001 16.7701 15.6992 16.7703 15.6992 16.7702ZM22.4823 10.5341C22.483 10.5335 22.4828 10.5336 22.4822 10.5342L22.4823 10.5341ZM14.5667 35.3333C14.5667 35.6462 14.3129 35.9 14 35.9H2C1.68706 35.9 1.43333 35.6462 1.43333 35.3333V34.7666H14.5667V35.3333ZM14.5667 33.2333H1.43333V18C1.43333 17.687 1.68706 17.4333 2 17.4333H14C14.3129 17.4333 14.5667 17.687 14.5667 18V33.2333ZM16.1 33.2333V29.4333H17.2333V33.2333H16.1ZM18.7667 33.2333V29.4333H21.2333V33.2333H18.7667ZM30.5667 27.9H16.1V24.1H30.5667V27.9ZM38.5667 35.3333C38.5667 35.6462 38.3129 35.9 38 35.9H32.6667C32.3537 35.9 32.1 35.6462 32.1 35.3333V34.7666H38.5667V35.3333ZM38.5667 33.2333H32.1V22C32.1 21.687 32.3537 21.4333 32.6667 21.4333H38C38.3129 21.4333 38.5667 21.687 38.5667 22V33.2333Z" fill="#3355FF" stroke="#3355FF" stroke-width="0.2"/>
<path d="M20.0133 25.3334H20.0066C19.6384 25.3352 19.3414 25.6352 19.3433 26.0034C19.3451 26.3715 19.6451 26.6686 20.0133 26.6667C20.3814 26.6667 20.6799 26.3682 20.6799 26C20.6799 25.6319 20.3814 25.3334 20.0133 25.3334Z" fill="#3355FF"/>
<path d="M21.3333 5.33337H18.6667C18.2985 5.33337 18 5.63187 18 6.00004C18 6.36821 18.2985 6.66671 18.6667 6.66671H21.3333C21.7015 6.66671 22 6.36821 22 6.00004C22 5.63187 21.7015 5.33337 21.3333 5.33337Z" fill="#3355FF"/>
</g>
<defs>
<clipPath id="clip0_0_5138">
<rect width="40" height="40" fill="white"/>
</clipPath>
</defs>
</svg>
