<svg width="40" height="40" viewBox="0 0 40 40" fill="none" xmlns="http://www.w3.org/2000/svg">
<path d="M39.9822 1.94C39.9498 0.858931 39.0642 -0.0004866 37.9831 2.06707e-07H1.99911C0.895033 2.06707e-07 0 0.895431 0 2V38C0 39.1046 0.895033 40 1.99911 40H37.9831C39.0872 40 39.9822 39.1046 39.9822 38C39.9822 -6.38 40.0222 3.33333 39.9822 1.94V1.94ZM38.6495 1.94L35.5442 12.46L31.3194 10.8733V1.33333L37.9831 1.33333C38.3313 1.33222 38.6216 1.59945 38.6495 1.94667V1.94ZM29.9867 11.2133L25.0755 24.72L20.6575 19.7467V1.33333H29.9867V11.2133ZM19.3247 18.1C15.3265 13.1267 15.2332 12.9733 15.1466 12.88C15.021 12.7445 14.8448 12.6673 14.6601 12.6667C14.4869 12.6667 15.4131 12.6667 11.9947 12.6667C11.6266 12.6667 11.3283 12.9651 11.3283 13.3333C11.3283 13.7015 11.6266 14 11.9947 14H13.5473L9.99556 20.6667V1.33333H19.3247V18.1ZM9.99556 23.5L14.7734 14.54L19.3247 20.2333V38.6667H9.99556V23.5ZM20.6575 21.7533C25.1422 26.8 24.8423 26.5 25.0355 26.5933C25.2288 26.6867 25.1422 26.6667 27.9876 26.6667C28.3556 26.6667 28.6539 26.3682 28.6539 26C28.6539 25.6318 28.3556 25.3333 27.9876 25.3333H26.275L29.9867 15.12V38.6667H20.6575V21.7533ZM1.99911 1.33333H8.66282V12.6667H7.33007C6.96205 12.6667 6.6637 12.9651 6.6637 13.3333C6.6637 13.7015 6.96205 14 7.33007 14H8.66282V23.1467L4.87117 29.4733L1.33274 30.9867V2C1.33274 1.63181 1.63109 1.33333 1.99911 1.33333V1.33333ZM1.33274 38V32.44L5.59085 30.6133C5.87072 30.4933 5.67748 30.7133 8.66282 25.74V38.6667H1.99911C1.63109 38.6667 1.33274 38.3682 1.33274 38V38ZM37.9831 38.6667H31.3194V26.6667H32.6522C33.0202 26.6667 33.3185 26.3682 33.3185 26C33.3185 25.6318 33.0202 25.3333 32.6522 25.3333H31.3194V12.2933L35.7508 13.96C35.9277 14.0339 36.1279 14.0279 36.3001 13.9437C36.4724 13.8594 36.6 13.7051 36.6504 13.52L38.6495 6.62667V38C38.6495 38.3682 38.3511 38.6667 37.9831 38.6667Z" fill="#3355FF"/>
<path d="M25.7952 28.194C25.67 28.0678 25.4997 27.9968 25.322 27.9968C25.1444 27.9968 24.974 28.0678 24.8489 28.194L22.8498 30.194C22.6808 30.3631 22.6148 30.6096 22.6766 30.8406C22.7385 31.0716 22.9188 31.252 23.1497 31.3139C23.3806 31.3758 23.627 31.3098 23.796 31.1407L24.6557 30.274V34.6674C24.6557 35.0355 24.954 35.334 25.322 35.334C25.6901 35.334 25.9884 35.0355 25.9884 34.6674V30.274L26.848 31.1407C27.1093 31.4021 27.533 31.4021 27.7943 31.1407C28.0556 30.8793 28.0556 30.4554 27.7943 30.194L25.7952 28.194Z" fill="#3355FF"/>
<path d="M14.1873 11.1418C14.3124 11.268 14.4827 11.339 14.6604 11.339C14.8381 11.339 15.0084 11.268 15.1335 11.1418L17.1326 9.14183C17.3017 8.97273 17.3677 8.72625 17.3058 8.49525C17.2439 8.26424 17.0636 8.08381 16.8327 8.02191C16.6018 7.96002 16.3554 8.02606 16.1864 8.19516L15.3268 9.06183V4.6685C15.3268 4.30031 15.0284 4.00183 14.6604 4.00183C14.2924 4.00183 13.994 4.30031 13.994 4.6685V9.06183L13.1344 8.19516C12.8731 7.93375 12.4495 7.93375 12.1882 8.19516C11.9269 8.45658 11.9269 8.88042 12.1882 9.14183L14.1873 11.1418Z" fill="#3355FF"/>
<path d="M36.6505 25.3315H35.3177C34.9497 25.3315 34.6514 25.6299 34.6514 25.9979C34.6514 26.3659 34.9497 26.6643 35.3177 26.6643H36.6505C37.0185 26.6643 37.3168 26.3659 37.3168 25.9979C37.3168 25.6299 37.0185 25.3315 36.6505 25.3315Z" fill="#3355FF"/>
<path d="M3.3319 13.9985H4.66464C5.03266 13.9985 5.33101 13.7002 5.33101 13.3321C5.33101 12.9641 5.03266 12.6658 4.66464 12.6658H3.3319C2.96387 12.6658 2.66553 12.9641 2.66553 13.3321C2.66553 13.7002 2.96387 13.9985 3.3319 13.9985Z" fill="#3355FF"/>
</svg>
