<svg width="42" height="42" viewBox="0 0 42 42" fill="none" xmlns="http://www.w3.org/2000/svg">
<path d="M34.2427 0.95C31.1505 0.95 28.7215 3.9024 28.7215 7.561C28.7215 11.2203 31.1889 14.1271 34.2427 14.1271C37.2965 14.1271 39.8016 11.1754 39.8016 7.51607C39.8016 3.85651 37.3341 0.95 34.2427 0.95ZM34.2427 12.589C31.901 12.589 29.9912 10.3281 29.9912 7.51607C29.9912 4.70493 31.9379 2.48803 34.2427 2.48803C36.5844 2.48803 38.4942 4.74896 38.4942 7.561C38.4942 10.3724 36.5849 12.589 34.2427 12.589Z" fill="#3355FF" stroke="#3355FF" stroke-width="0.1"/>
<mask id="path-2-outside-1_0_5220" maskUnits="userSpaceOnUse" x="31.4688" y="2.29346" width="5" height="10" fill="black">
<rect fill="white" x="31.4688" y="2.29346" width="5" height="10"/>
<path d="M35.9779 8.55125C35.9401 8.41644 35.9401 8.32656 35.8647 8.19175C35.8269 8.10187 35.7892 7.96705 35.7137 7.87718C35.6383 7.7873 35.6005 7.69742 35.5251 7.60755C35.4496 7.51767 35.3742 7.42779 35.261 7.38285C35.1855 7.29298 35.0723 7.24804 34.9968 7.2031C34.8836 7.15816 34.8082 7.06829 34.695 7.02335C34.5818 6.97841 34.4686 6.93347 34.3931 6.88853C34.3554 6.88853 34.2799 6.84359 34.2422 6.79865C34.2044 6.75372 34.129 6.75372 34.0912 6.70878C34.0535 6.66384 33.978 6.66384 33.9403 6.6189C33.9026 6.57396 33.8649 6.52902 33.8271 6.48409C33.7894 6.43915 33.7517 6.39421 33.7517 6.30433C33.7139 6.25939 33.7139 6.16952 33.7139 6.12458C33.7139 6.0347 33.7139 5.98976 33.7139 5.89989C33.7139 5.85495 33.7517 5.76507 33.7517 5.72013C33.7894 5.67519 33.7894 5.58532 33.8271 5.54038C33.8649 5.49544 33.9026 5.4505 33.9403 5.40556C33.978 5.36063 34.0535 5.31569 34.129 5.31569C34.2044 5.27075 34.2422 5.27075 34.3176 5.27075C34.3554 5.27075 34.3931 5.27075 34.4308 5.27075C34.4686 5.27075 34.5063 5.27075 34.544 5.27075C34.6195 5.27075 34.6572 5.27075 34.7327 5.31569C34.8082 5.31569 34.8836 5.36062 34.9214 5.36062C34.9591 5.36062 35.0346 5.40556 35.0723 5.40556C35.1478 5.40556 35.1855 5.4505 35.2232 5.4505L35.4119 5.54038L35.4496 5.27075L35.5251 4.55173V4.37198L35.3741 4.32704C35.3364 4.32704 35.261 4.2821 35.2232 4.2821C35.1855 4.2821 35.1478 4.23716 35.0723 4.23716C35.0346 4.23716 34.9591 4.19223 34.8836 4.19223C34.8082 4.19223 34.7704 4.14729 34.695 4.14729H34.6572V3.51815V3.29346H34.4686H33.9403H33.7517V3.51815V4.19223H33.7139C33.6007 4.23716 33.4875 4.2821 33.3743 4.37198C33.2611 4.41692 33.1857 4.50679 33.1102 4.59667C33.0347 4.68655 32.9593 4.77643 32.8838 4.91124C32.8083 5.00112 32.7706 5.13593 32.7329 5.27075C32.6951 5.40556 32.6574 5.54038 32.6197 5.67519C32.5819 5.81001 32.5819 5.98976 32.5819 6.12458C32.5819 6.25939 32.5819 6.34927 32.6197 6.48409C32.6574 6.6189 32.6574 6.70878 32.7329 6.84359C32.7706 6.93347 32.8461 7.06828 32.8838 7.15816C32.9593 7.24804 32.997 7.33792 33.0725 7.42779C33.1479 7.51767 33.2234 7.60755 33.3366 7.65248C33.4121 7.74236 33.5253 7.7873 33.6007 7.83224C33.7139 7.87718 33.8271 7.96705 33.9026 8.01199C34.0158 8.05693 34.129 8.10187 34.2044 8.14681C34.2422 8.14681 34.3176 8.19175 34.3554 8.23668C34.3931 8.28162 34.4686 8.28162 34.5063 8.32656C34.544 8.3715 34.5818 8.41644 34.6195 8.41644C34.6572 8.46138 34.695 8.50631 34.7327 8.55125C34.7704 8.59619 34.7704 8.64113 34.8082 8.73101C34.8082 8.77595 34.8459 8.86582 34.8459 8.9557C34.8459 9.04558 34.8459 9.09051 34.8459 9.18039C34.8459 9.22533 34.8082 9.31521 34.7704 9.36014C34.7327 9.40508 34.695 9.45002 34.6572 9.49496C34.6195 9.5399 34.5818 9.58484 34.5063 9.62978C34.4686 9.67471 34.3931 9.67471 34.3554 9.71965C34.3176 9.71965 34.2422 9.76459 34.1667 9.76459C34.129 9.76459 34.0912 9.76459 34.0158 9.76459C33.978 9.76459 33.9026 9.76459 33.8649 9.76459C33.7894 9.76459 33.7139 9.76459 33.6762 9.76459C33.6007 9.76459 33.5253 9.71965 33.4875 9.71965C33.4121 9.71965 33.3366 9.67471 33.2611 9.62978C33.1857 9.58484 33.1102 9.58484 33.0347 9.5399C32.997 9.5399 32.9593 9.49496 32.9215 9.49496C32.8838 9.49496 32.8461 9.45002 32.8083 9.45002L32.5819 9.31521L32.5442 9.62978L32.4688 10.4387V10.5735L32.5819 10.6184C32.7329 10.5735 32.8083 10.6184 32.9215 10.6634C32.997 10.7083 33.1102 10.7532 33.1857 10.7532C33.2611 10.7982 33.3743 10.7982 33.4875 10.8431C33.6007 10.8881 33.6762 10.8881 33.7894 10.8881H33.8649V11.5621V11.7868H34.0535H34.5818H34.7704V11.5621V10.8431H34.8082C34.9214 10.7982 35.0346 10.7532 35.1478 10.6634C35.261 10.6184 35.3364 10.5285 35.4496 10.4387C35.5251 10.3488 35.6005 10.2589 35.676 10.1241C35.7515 10.0342 35.7892 9.89941 35.8647 9.76459C35.9024 9.62978 35.9401 9.49496 35.9779 9.36014C36.0156 9.22533 36.0156 9.09051 36.0156 8.91076C36.0156 8.77595 36.0156 8.68607 35.9779 8.55125Z"/>
</mask>
<path d="M35.9779 8.55125C35.9401 8.41644 35.9401 8.32656 35.8647 8.19175C35.8269 8.10187 35.7892 7.96705 35.7137 7.87718C35.6383 7.7873 35.6005 7.69742 35.5251 7.60755C35.4496 7.51767 35.3742 7.42779 35.261 7.38285C35.1855 7.29298 35.0723 7.24804 34.9968 7.2031C34.8836 7.15816 34.8082 7.06829 34.695 7.02335C34.5818 6.97841 34.4686 6.93347 34.3931 6.88853C34.3554 6.88853 34.2799 6.84359 34.2422 6.79865C34.2044 6.75372 34.129 6.75372 34.0912 6.70878C34.0535 6.66384 33.978 6.66384 33.9403 6.6189C33.9026 6.57396 33.8649 6.52902 33.8271 6.48409C33.7894 6.43915 33.7517 6.39421 33.7517 6.30433C33.7139 6.25939 33.7139 6.16952 33.7139 6.12458C33.7139 6.0347 33.7139 5.98976 33.7139 5.89989C33.7139 5.85495 33.7517 5.76507 33.7517 5.72013C33.7894 5.67519 33.7894 5.58532 33.8271 5.54038C33.8649 5.49544 33.9026 5.4505 33.9403 5.40556C33.978 5.36063 34.0535 5.31569 34.129 5.31569C34.2044 5.27075 34.2422 5.27075 34.3176 5.27075C34.3554 5.27075 34.3931 5.27075 34.4308 5.27075C34.4686 5.27075 34.5063 5.27075 34.544 5.27075C34.6195 5.27075 34.6572 5.27075 34.7327 5.31569C34.8082 5.31569 34.8836 5.36062 34.9214 5.36062C34.9591 5.36062 35.0346 5.40556 35.0723 5.40556C35.1478 5.40556 35.1855 5.4505 35.2232 5.4505L35.4119 5.54038L35.4496 5.27075L35.5251 4.55173V4.37198L35.3741 4.32704C35.3364 4.32704 35.261 4.2821 35.2232 4.2821C35.1855 4.2821 35.1478 4.23716 35.0723 4.23716C35.0346 4.23716 34.9591 4.19223 34.8836 4.19223C34.8082 4.19223 34.7704 4.14729 34.695 4.14729H34.6572V3.51815V3.29346H34.4686H33.9403H33.7517V3.51815V4.19223H33.7139C33.6007 4.23716 33.4875 4.2821 33.3743 4.37198C33.2611 4.41692 33.1857 4.50679 33.1102 4.59667C33.0347 4.68655 32.9593 4.77643 32.8838 4.91124C32.8083 5.00112 32.7706 5.13593 32.7329 5.27075C32.6951 5.40556 32.6574 5.54038 32.6197 5.67519C32.5819 5.81001 32.5819 5.98976 32.5819 6.12458C32.5819 6.25939 32.5819 6.34927 32.6197 6.48409C32.6574 6.6189 32.6574 6.70878 32.7329 6.84359C32.7706 6.93347 32.8461 7.06828 32.8838 7.15816C32.9593 7.24804 32.997 7.33792 33.0725 7.42779C33.1479 7.51767 33.2234 7.60755 33.3366 7.65248C33.4121 7.74236 33.5253 7.7873 33.6007 7.83224C33.7139 7.87718 33.8271 7.96705 33.9026 8.01199C34.0158 8.05693 34.129 8.10187 34.2044 8.14681C34.2422 8.14681 34.3176 8.19175 34.3554 8.23668C34.3931 8.28162 34.4686 8.28162 34.5063 8.32656C34.544 8.3715 34.5818 8.41644 34.6195 8.41644C34.6572 8.46138 34.695 8.50631 34.7327 8.55125C34.7704 8.59619 34.7704 8.64113 34.8082 8.73101C34.8082 8.77595 34.8459 8.86582 34.8459 8.9557C34.8459 9.04558 34.8459 9.09051 34.8459 9.18039C34.8459 9.22533 34.8082 9.31521 34.7704 9.36014C34.7327 9.40508 34.695 9.45002 34.6572 9.49496C34.6195 9.5399 34.5818 9.58484 34.5063 9.62978C34.4686 9.67471 34.3931 9.67471 34.3554 9.71965C34.3176 9.71965 34.2422 9.76459 34.1667 9.76459C34.129 9.76459 34.0912 9.76459 34.0158 9.76459C33.978 9.76459 33.9026 9.76459 33.8649 9.76459C33.7894 9.76459 33.7139 9.76459 33.6762 9.76459C33.6007 9.76459 33.5253 9.71965 33.4875 9.71965C33.4121 9.71965 33.3366 9.67471 33.2611 9.62978C33.1857 9.58484 33.1102 9.58484 33.0347 9.5399C32.997 9.5399 32.9593 9.49496 32.9215 9.49496C32.8838 9.49496 32.8461 9.45002 32.8083 9.45002L32.5819 9.31521L32.5442 9.62978L32.4688 10.4387V10.5735L32.5819 10.6184C32.7329 10.5735 32.8083 10.6184 32.9215 10.6634C32.997 10.7083 33.1102 10.7532 33.1857 10.7532C33.2611 10.7982 33.3743 10.7982 33.4875 10.8431C33.6007 10.8881 33.6762 10.8881 33.7894 10.8881H33.8649V11.5621V11.7868H34.0535H34.5818H34.7704V11.5621V10.8431H34.8082C34.9214 10.7982 35.0346 10.7532 35.1478 10.6634C35.261 10.6184 35.3364 10.5285 35.4496 10.4387C35.5251 10.3488 35.6005 10.2589 35.676 10.1241C35.7515 10.0342 35.7892 9.89941 35.8647 9.76459C35.9024 9.62978 35.9401 9.49496 35.9779 9.36014C36.0156 9.22533 36.0156 9.09051 36.0156 8.91076C36.0156 8.77595 36.0156 8.68607 35.9779 8.55125Z" fill="#3355FF"/>
<path d="M35.9779 8.55125C35.9401 8.41644 35.9401 8.32656 35.8647 8.19175C35.8269 8.10187 35.7892 7.96705 35.7137 7.87718C35.6383 7.7873 35.6005 7.69742 35.5251 7.60755C35.4496 7.51767 35.3742 7.42779 35.261 7.38285C35.1855 7.29298 35.0723 7.24804 34.9968 7.2031C34.8836 7.15816 34.8082 7.06829 34.695 7.02335C34.5818 6.97841 34.4686 6.93347 34.3931 6.88853C34.3554 6.88853 34.2799 6.84359 34.2422 6.79865C34.2044 6.75372 34.129 6.75372 34.0912 6.70878C34.0535 6.66384 33.978 6.66384 33.9403 6.6189C33.9026 6.57396 33.8649 6.52902 33.8271 6.48409C33.7894 6.43915 33.7517 6.39421 33.7517 6.30433C33.7139 6.25939 33.7139 6.16952 33.7139 6.12458C33.7139 6.0347 33.7139 5.98976 33.7139 5.89989C33.7139 5.85495 33.7517 5.76507 33.7517 5.72013C33.7894 5.67519 33.7894 5.58532 33.8271 5.54038C33.8649 5.49544 33.9026 5.4505 33.9403 5.40556C33.978 5.36063 34.0535 5.31569 34.129 5.31569C34.2044 5.27075 34.2422 5.27075 34.3176 5.27075C34.3554 5.27075 34.3931 5.27075 34.4308 5.27075C34.4686 5.27075 34.5063 5.27075 34.544 5.27075C34.6195 5.27075 34.6572 5.27075 34.7327 5.31569C34.8082 5.31569 34.8836 5.36062 34.9214 5.36062C34.9591 5.36062 35.0346 5.40556 35.0723 5.40556C35.1478 5.40556 35.1855 5.4505 35.2232 5.4505L35.4119 5.54038L35.4496 5.27075L35.5251 4.55173V4.37198L35.3741 4.32704C35.3364 4.32704 35.261 4.2821 35.2232 4.2821C35.1855 4.2821 35.1478 4.23716 35.0723 4.23716C35.0346 4.23716 34.9591 4.19223 34.8836 4.19223C34.8082 4.19223 34.7704 4.14729 34.695 4.14729H34.6572V3.51815V3.29346H34.4686H33.9403H33.7517V3.51815V4.19223H33.7139C33.6007 4.23716 33.4875 4.2821 33.3743 4.37198C33.2611 4.41692 33.1857 4.50679 33.1102 4.59667C33.0347 4.68655 32.9593 4.77643 32.8838 4.91124C32.8083 5.00112 32.7706 5.13593 32.7329 5.27075C32.6951 5.40556 32.6574 5.54038 32.6197 5.67519C32.5819 5.81001 32.5819 5.98976 32.5819 6.12458C32.5819 6.25939 32.5819 6.34927 32.6197 6.48409C32.6574 6.6189 32.6574 6.70878 32.7329 6.84359C32.7706 6.93347 32.8461 7.06828 32.8838 7.15816C32.9593 7.24804 32.997 7.33792 33.0725 7.42779C33.1479 7.51767 33.2234 7.60755 33.3366 7.65248C33.4121 7.74236 33.5253 7.7873 33.6007 7.83224C33.7139 7.87718 33.8271 7.96705 33.9026 8.01199C34.0158 8.05693 34.129 8.10187 34.2044 8.14681C34.2422 8.14681 34.3176 8.19175 34.3554 8.23668C34.3931 8.28162 34.4686 8.28162 34.5063 8.32656C34.544 8.3715 34.5818 8.41644 34.6195 8.41644C34.6572 8.46138 34.695 8.50631 34.7327 8.55125C34.7704 8.59619 34.7704 8.64113 34.8082 8.73101C34.8082 8.77595 34.8459 8.86582 34.8459 8.9557C34.8459 9.04558 34.8459 9.09051 34.8459 9.18039C34.8459 9.22533 34.8082 9.31521 34.7704 9.36014C34.7327 9.40508 34.695 9.45002 34.6572 9.49496C34.6195 9.5399 34.5818 9.58484 34.5063 9.62978C34.4686 9.67471 34.3931 9.67471 34.3554 9.71965C34.3176 9.71965 34.2422 9.76459 34.1667 9.76459C34.129 9.76459 34.0912 9.76459 34.0158 9.76459C33.978 9.76459 33.9026 9.76459 33.8649 9.76459C33.7894 9.76459 33.7139 9.76459 33.6762 9.76459C33.6007 9.76459 33.5253 9.71965 33.4875 9.71965C33.4121 9.71965 33.3366 9.67471 33.2611 9.62978C33.1857 9.58484 33.1102 9.58484 33.0347 9.5399C32.997 9.5399 32.9593 9.49496 32.9215 9.49496C32.8838 9.49496 32.8461 9.45002 32.8083 9.45002L32.5819 9.31521L32.5442 9.62978L32.4688 10.4387V10.5735L32.5819 10.6184C32.7329 10.5735 32.8083 10.6184 32.9215 10.6634C32.997 10.7083 33.1102 10.7532 33.1857 10.7532C33.2611 10.7982 33.3743 10.7982 33.4875 10.8431C33.6007 10.8881 33.6762 10.8881 33.7894 10.8881H33.8649V11.5621V11.7868H34.0535H34.5818H34.7704V11.5621V10.8431H34.8082C34.9214 10.7982 35.0346 10.7532 35.1478 10.6634C35.261 10.6184 35.3364 10.5285 35.4496 10.4387C35.5251 10.3488 35.6005 10.2589 35.676 10.1241C35.7515 10.0342 35.7892 9.89941 35.8647 9.76459C35.9024 9.62978 35.9401 9.49496 35.9779 9.36014C36.0156 9.22533 36.0156 9.09051 36.0156 8.91076C36.0156 8.77595 36.0156 8.68607 35.9779 8.55125Z" stroke="#3355FF" stroke-width="0.2" mask="url(#path-2-outside-1_0_5220)"/>
<path d="M30.7011 14.7547L30.701 14.7546L30.6991 14.7565L24.6117 20.5295L16.7569 16.6354L16.7562 16.635C16.5477 16.5357 16.3003 16.5859 16.1359 16.7323L7.68427 23.9221C7.40152 24.1626 7.32217 24.638 7.52191 24.973C7.64423 25.2144 7.85037 25.3134 8.05626 25.3134C8.18356 25.3134 8.30739 25.2627 8.42694 25.1677L8.42696 25.1678L8.42825 25.1667L16.5912 18.2225L24.4855 22.1176L24.4861 22.1179C24.5912 22.168 24.7149 22.1796 24.8313 22.1615C24.9477 22.1434 25.0608 22.0951 25.1446 22.0202L25.1447 22.0202L25.1457 22.0193L31.5215 15.9984C31.6656 15.8752 31.7446 15.6822 31.7643 15.483C31.784 15.283 31.7449 15.0697 31.6442 14.9019C31.4384 14.5587 30.9869 14.5116 30.7011 14.7547Z" fill="#3355FF" stroke="#3355FF" stroke-width="0.1"/>
<path d="M40.4305 39.5145H37.6883V18.7581C37.6883 18.3346 37.4096 17.9891 37.0345 17.9891H31.4879C31.1128 17.9891 30.8341 18.3346 30.8341 18.7581V39.5145H28.8966V25.9482C28.8966 25.5247 28.6179 25.1792 28.2429 25.1792H22.6585C22.2834 25.1792 22.0047 25.5247 22.0047 25.9482V39.5145H20.0672V24.8697C20.0672 24.4462 19.7885 24.1007 19.4135 24.1007H13.8668C13.4917 24.1007 13.2131 24.4462 13.2131 24.8697V39.5145H11.2755V29.0939C11.2755 28.6704 10.9968 28.3249 10.6218 28.3249H5.03738C4.66234 28.3249 4.38366 28.6704 4.38366 29.0939V39.5145H1.60372C1.22868 39.5145 0.95 39.86 0.95 40.2835C0.95 40.7071 1.22868 41.0526 1.60372 41.0526H4.99964H10.5463H13.8668H19.4135H22.6585H28.2051H31.4501H36.9968H40.3927C40.7671 41.0526 41.0454 40.7083 41.0464 40.2858C41.0851 39.8595 40.8048 39.5145 40.4305 39.5145ZM9.93033 39.5145H5.6911V29.8629H9.93033V39.5145ZM18.7597 39.5145H14.5205V25.6387H18.7597V39.5145ZM27.5514 39.5145H23.3122V26.7172H27.5514V39.5145ZM36.3808 39.5145H32.1416V19.5271H36.3808V39.5145Z" fill="#3355FF" stroke="#3355FF" stroke-width="0.1"/>
</svg>
