<svg width="190" height="61" viewBox="0 0 190 61" fill="none" xmlns="http://www.w3.org/2000/svg">
<path d="M97.8179 30.4419C97.8179 32.4848 97.4983 34.4127 96.8301 36.1966C96.1619 38.0094 95.2322 39.5632 93.983 40.9155C92.7338 42.2679 91.2231 43.3325 89.3928 44.1382C87.5625 44.9438 85.4998 45.3179 83.1756 45.3179C80.8515 45.3179 78.7888 44.915 76.9585 44.1382C75.1282 43.3325 73.6175 42.2679 72.3683 40.9155C71.1191 39.5632 70.1604 37.9806 69.5212 36.1966C68.8821 34.3839 68.5625 32.4848 68.5625 30.4419C68.5625 28.4278 68.8821 26.4999 69.5212 24.6872C70.1604 22.8745 71.1191 21.2919 72.3683 19.9396C73.6175 18.5872 75.1573 17.5226 76.9585 16.7169C78.7888 15.9113 80.8515 15.5372 83.1756 15.5372C85.4998 15.5372 87.5625 15.94 89.3928 16.7169C91.2231 17.5226 92.7338 18.5872 93.983 19.9396C95.2322 21.2919 96.1619 22.8745 96.8301 24.6872C97.4983 26.4999 97.8179 28.4278 97.8179 30.4419ZM83.2047 40.599C84.6282 40.599 85.8775 40.34 86.9234 39.8221C87.9983 39.3042 88.8698 38.5849 89.5961 37.6929C90.3224 36.7721 90.8454 35.7075 91.194 34.4702C91.5426 33.233 91.7169 31.8806 91.7169 30.4419C91.7169 29.0032 91.5426 27.6509 91.194 26.4136C90.8454 25.1764 90.3224 24.1117 89.5961 23.191C88.8698 22.2702 87.9983 21.5797 86.9234 21.0617C85.8484 20.5438 84.6282 20.2848 83.2047 20.2848C81.7812 20.2848 80.5319 20.5438 79.486 21.0617C78.4111 21.5797 77.5396 22.299 76.8133 23.191C76.087 24.1117 75.564 25.1764 75.2154 26.4136C74.8668 27.6509 74.6925 29.0032 74.6925 30.4419C74.6925 31.8806 74.8668 33.233 75.2154 34.4702C75.564 35.7075 76.087 36.7721 76.8133 37.6929C77.5396 38.6136 78.4111 39.3042 79.486 39.8221C80.5319 40.34 81.7812 40.599 83.2047 40.599ZM101.653 44.8287V16.0551H107.754V29.8665L117.835 16.0551H124.894L114.203 30.2693L125.621 44.8287H118.067L107.725 30.7009V44.8287H101.653ZM128.061 16.0551H145.521V20.8603H134.191V27.8235H144.998V32.5999H134.191V40.0235H145.666V44.8287H128.09V16.0551H128.061ZM167.281 16.0551H173.905L164.347 30.3556L174.079 44.8287H167.397L161.122 35.0169L154.847 44.8287H148.165L157.897 30.3556L148.339 16.0551H154.963L161.122 25.7806L167.281 16.0551Z" fill="#5B5B5B"/>
<path d="M30.7951 27.6227C38.4966 27.6227 44.74 21.4391 44.74 13.8113C44.74 6.18354 38.4966 0 30.7951 0C23.0935 0 16.8501 6.18354 16.8501 13.8113C16.8501 21.4391 23.0935 27.6227 30.7951 27.6227Z" fill="#BCBABA"/>
<path d="M30.7951 61C38.4966 61 44.74 54.8164 44.74 47.1886C44.74 39.5608 38.4966 33.3773 30.7951 33.3773C23.0935 33.3773 16.8501 39.5608 16.8501 47.1886C16.8501 54.8164 23.0935 61 30.7951 61Z" fill="#A4A4A4"/>
<path d="M47.6451 44.3114C55.3467 44.3114 61.5901 38.1279 61.5901 30.5001C61.5901 22.8723 55.3467 16.6888 47.6451 16.6888C39.9436 16.6888 33.7002 22.8723 33.7002 30.5001C33.7002 38.1279 39.9436 44.3114 47.6451 44.3114Z" fill="#CECCCC"/>
<path d="M13.945 44.3114C21.6465 44.3114 27.8899 38.1279 27.8899 30.5001C27.8899 22.8723 21.6465 16.6888 13.945 16.6888C6.24337 16.6888 0 22.8723 0 30.5001C0 38.1279 6.24337 44.3114 13.945 44.3114Z" fill="#5B5B5B"/>
<path fill-rule="evenodd" clip-rule="evenodd" d="M27.4977 27.2347C22.4447 26.0214 18.4672 22.0821 17.2422 17.0775C22.2952 18.2908 26.2727 22.2301 27.4977 27.2347Z" fill="#979797"/>
<path fill-rule="evenodd" clip-rule="evenodd" d="M17.2422 43.9235C18.4672 38.9189 22.4447 34.9796 27.4977 33.7663C26.2727 38.7709 22.2952 42.7102 17.2422 43.9235Z" fill="#979797"/>
<path fill-rule="evenodd" clip-rule="evenodd" d="M34.0923 33.7663C39.1453 34.9796 43.1228 38.9189 44.3478 43.9235C39.2948 42.7102 35.3173 38.7709 34.0923 33.7663Z" fill="#BCBABA"/>
<path fill-rule="evenodd" clip-rule="evenodd" d="M44.3478 17.0775C43.1228 22.0821 39.1453 26.0214 34.0923 27.2347C35.3173 22.2301 39.2948 18.2908 44.3478 17.0775Z" fill="#5B5B5B"/>
</svg>
