<svg width="1093" height="322" viewBox="0 0 1093 322" fill="none" xmlns="http://www.w3.org/2000/svg">
<path d="M1130.77 -318.94C1128.36 -320.353 1124.47 -320.353 1122.06 -318.94C1120.26 -317.879 1119.81 -316.328 1120.73 -315.032L985.953 -236.212V-136.715L953.117 -117.511V-9.2955L840.655 56.486L823.133 46.2358L909.854 -4.48462V-63.8058L909.505 -64.0021L810.902 -121.674V-141.801L866.668 -174.417C869.071 -173.396 872.444 -173.514 874.615 -174.77C877.018 -176.184 877.018 -178.462 874.615 -179.856C872.211 -181.27 868.315 -181.27 865.912 -179.856C863.741 -178.58 863.547 -176.616 865.291 -175.202L809.526 -142.586V-120.849L809.874 -120.653L908.477 -62.981V-5.27011L842.962 33.0599V8.33783L873.006 -9.2366C875.41 -8.21552 878.782 -8.33334 880.953 -9.59006C883.357 -11.0039 883.357 -13.2817 880.953 -14.6758C878.55 -16.0897 874.654 -16.0897 872.25 -14.6758C870.079 -13.3995 869.885 -11.4359 871.63 -10.0221L841.586 7.55237V33.8846L821.776 45.47L798.341 31.7639V-11.2788L842.535 -37.1397V-66.8886L842.186 -67.085L749.127 -121.517C750.872 -122.93 750.678 -124.894 748.507 -126.171C746.103 -127.584 742.207 -127.584 739.804 -126.171C737.4 -124.757 737.4 -122.479 739.804 -121.085C741.975 -119.808 745.347 -119.71 747.751 -120.731L841.14 -66.1032V-37.9644L798.322 -12.9086V-42.579L797.973 -42.7754L741.044 -76.0784C742.789 -77.4922 742.595 -79.4559 740.424 -80.7323C738.02 -82.1461 734.124 -82.1461 731.721 -80.7323C729.317 -79.3185 729.317 -77.0406 731.721 -75.6464C733.892 -74.3701 737.264 -74.2719 739.668 -75.293L796.946 -41.7935V30.9195L780.489 21.2978L753.372 37.1638L728.813 22.7901V-12.1231L728.464 -12.3195L663.53 -50.2961V-83.2064C664.868 -83.2849 666.166 -83.6188 667.194 -84.2275C669.597 -85.6413 669.597 -87.9191 667.194 -89.3133C664.79 -90.7271 660.894 -90.7271 658.491 -89.3133C656.087 -87.8995 656.087 -85.6217 658.491 -84.2275C659.518 -83.6188 660.817 -83.3046 662.154 -83.2064V-49.4909L662.503 -49.2946L727.437 -11.3181V21.985L621.759 -39.8299V-105.356L679.076 -138.875H731.682L731.837 -138.973L822.105 -191.756C824.509 -190.735 827.882 -190.852 830.053 -192.109C832.456 -193.523 832.456 -195.801 830.053 -197.195C827.649 -198.609 823.753 -198.609 821.349 -197.195C819.178 -195.918 818.985 -193.955 820.729 -192.541L731.314 -140.25H681.46L847.284 -237.233C849.688 -236.212 853.061 -236.33 855.232 -237.587C857.635 -239 857.635 -241.278 855.232 -242.672C852.828 -244.086 848.932 -244.086 846.528 -242.672C844.357 -241.396 844.164 -239.432 845.908 -238.019L620.383 -106.122V-38.9855L620.732 -38.7892L752.015 37.9886L725.596 53.4423L501.447 -77.6493V-155.88L501.098 -156.077L424.863 -200.651C426.608 -202.065 426.414 -204.028 424.243 -205.305C421.84 -206.718 417.943 -206.718 415.54 -205.305C413.136 -203.891 413.136 -201.613 415.54 -200.219C417.711 -198.942 421.084 -198.844 423.487 -199.865L500.051 -155.075V-76.8443L500.4 -76.6479L724.2 54.2474L699.041 68.955L477.373 -60.7032H345.178L262.567 -109.028V-183.292C263.439 -183.469 264.253 -183.744 264.951 -184.137C267.354 -185.551 267.354 -187.828 264.951 -189.223C262.547 -190.636 258.651 -190.636 256.248 -189.223C253.844 -187.809 253.844 -185.531 256.248 -184.137C257.605 -183.351 259.427 -183.017 261.19 -183.116V-108.223L261.539 -108.027L344.829 -59.3091H477.024L664.151 50.1435H626.508L562.64 12.7953H513.445L513.29 12.8935L445.061 52.7943C442.657 51.7733 439.285 51.8911 437.114 53.1478C434.71 54.5616 434.71 56.8394 437.114 58.2336C439.517 59.6474 443.413 59.6474 445.817 58.2336C447.988 56.9572 448.182 54.9936 446.437 53.5798L513.813 14.1698H562.272L626.14 51.5179H666.535L697.684 69.7404L630.54 109.013L611.447 97.8399V68.523L562.892 40.1486C564.637 38.7347 564.443 36.7712 562.272 35.4948C559.868 34.081 555.972 34.081 553.569 35.4948C551.165 36.9086 551.165 39.1864 553.569 40.5806C555.74 41.857 559.112 41.9551 561.516 40.934L610.013 69.3084V97.0151L558.298 66.7557H533.798L533.643 66.8539L504.432 83.9374C502.028 82.9164 498.656 83.0341 496.485 84.2909C494.081 85.7047 494.081 87.9825 496.485 89.3767C498.888 90.7905 502.784 90.7905 505.188 89.3767C507.359 88.1003 507.553 86.1367 505.808 84.7229L534.166 68.1302H557.91L629.106 109.759L616.177 117.319L657.444 141.452L638.119 152.763H608.889L587.974 140.529C589.641 139.135 589.408 137.191 587.276 135.934C584.873 134.52 580.977 134.52 578.573 135.934C576.17 137.348 576.17 139.626 578.573 141.02C580.763 142.296 584.194 142.395 586.617 141.334L608.52 154.137H635.735L586.443 182.963L470.492 115.139H387.046L386.891 115.238L339.906 142.709C337.503 141.688 334.13 141.806 331.959 143.062C329.555 144.476 329.555 146.754 331.959 148.148C334.363 149.562 338.259 149.562 340.662 148.148C342.833 146.872 343.027 144.908 341.282 143.494L387.415 116.514H470.104L559.539 168.825H521.257L483.847 146.95C485.591 145.536 485.397 143.573 483.227 142.296C480.823 140.883 476.927 140.883 474.523 142.296C472.12 143.71 472.12 145.988 474.523 147.382C476.694 148.659 480.067 148.757 482.471 147.736L520.888 170.219H561.923L585.047 183.749L526.18 218.171H338.026L191.895 132.792C193.64 131.379 193.446 129.415 191.275 128.139C188.871 126.725 184.975 126.725 182.572 128.139C180.168 129.552 180.168 131.83 182.572 133.224C184.743 134.501 188.115 134.599 190.519 133.578L337.696 219.663H523.815L500.458 233.33H361.189L361.034 233.428L292.359 273.604C289.955 272.583 286.583 272.701 284.412 273.957C282.008 275.371 282.008 277.649 284.412 279.043C286.815 280.457 290.711 280.457 293.115 279.043C295.286 277.767 295.48 275.803 293.735 274.389L361.577 234.724H500.846L501.001 234.626L658.839 142.316L676.362 152.566L510.421 249.628H389.062L388.907 249.726L242.33 335.458H39.2513L0 312.484V314.094L38.883 336.833H242.699L242.854 336.735L334.847 282.931V314.781L274.216 350.244C271.812 349.223 268.44 349.341 266.269 350.598C263.865 352.012 263.865 354.289 266.269 355.684C268.672 357.097 272.568 357.097 274.972 355.684C277.143 354.407 277.337 352.444 275.592 351.03L336.223 315.567V282.303H335.913L389.45 250.983H510.809L510.964 250.885L677.758 153.332L697.664 164.976L374.04 354.25V388.457H375.416V355.055L699.041 165.781L723.638 180.175L556.709 277.806V295.263L527.11 312.582V352.738L469.716 386.316C467.313 385.295 463.94 385.413 461.769 386.67C460.897 387.18 460.335 387.809 460.102 388.476H472.1C471.926 387.985 471.597 387.534 471.093 387.121L528.487 353.543V313.387L556.709 296.873V361.162L573.359 370.902L543.315 388.496H546.067L574.696 371.746L603.326 388.496H606.078L558.027 360.396V278.651L724.956 181.019L747.344 194.117L629.202 263.216C626.799 262.195 623.426 262.313 621.255 263.57C618.852 264.984 618.852 267.262 621.255 268.656C623.659 270.07 627.555 270.07 629.958 268.656C632.129 267.379 632.323 265.416 630.579 264.002L748.72 194.902L770.333 207.548L629.009 290.197H590.61C590.378 289.529 589.815 288.881 588.924 288.351C586.52 286.937 582.624 286.937 580.221 288.351C577.817 289.765 577.817 292.042 580.221 293.437C582.624 294.85 586.52 294.85 588.924 293.437C589.815 292.906 590.378 292.258 590.61 291.591H629.377L629.532 291.493L771.689 208.353L780.412 213.458L787.118 209.531L820.981 229.324V256.894L793.011 273.251V273.172H749.108L748.953 273.27L700.785 301.448C698.382 300.427 695.009 300.545 692.838 301.802C690.434 303.216 690.434 305.493 692.838 306.888C695.241 308.301 699.138 308.301 701.541 306.888C703.712 305.611 703.906 303.648 702.161 302.234L749.476 274.566H790.743L708.5 322.655C706.077 321.556 702.607 321.634 700.378 322.93C697.974 324.344 697.974 326.622 700.378 328.016C702.781 329.43 706.678 329.43 709.081 328.016C711.194 326.779 711.446 324.874 709.837 323.461L812.414 263.472V276.726L751.395 312.425V337.618L701.715 366.68C699.312 365.659 695.939 365.777 693.768 367.033C691.365 368.447 691.365 370.725 693.768 372.119C696.172 373.533 700.068 373.533 702.471 372.119C704.642 370.843 704.836 368.879 703.092 367.465L752.771 338.404V313.21L813.79 277.512V262.647L822.338 257.64V228.46L788.475 208.667L810.727 195.648L880.391 236.393V282.715L833.076 310.383C830.653 309.283 827.184 309.362 824.955 310.658C822.551 312.071 822.551 314.349 824.955 315.743C827.358 317.157 831.254 317.157 833.658 315.743C835.771 314.506 836.023 312.602 834.414 311.188L880.372 284.306V321.732L844.067 342.979V388.417H845.443V343.784L880.372 323.343V388.398H881.748V235.569L812.084 194.823L837.069 180.214L928.132 233.467V360.318L971.9 385.923V388.496H973.276V385.197L929.508 359.591V232.741L838.445 179.487L856.957 168.648L979.847 240.517V348.732L1087.35 411H1090.85L981.34 347.947V239.731L858.449 167.863L888.455 150.308L1092.93 269.893V323.735L1163 364.716V363.106L1094.31 322.93V269.088L979.304 201.814H1070.25L1163 256.069V254.459L1070.62 200.42H976.92L889.85 149.503L924.74 129.101L999.579 172.87H1119.76L1163 198.161V196.551L1153.52 191.014H1163V189.62H1151.14L1120.12 171.476H999.948L978.994 159.223H1030.09L1030.24 159.125L1055.87 144.142H1162.63L1162.98 144.358V142.748H1058.23L1087.08 125.88C1089.48 126.902 1092.85 126.784 1095.02 125.527C1097.43 124.113 1097.43 121.835 1095.02 120.441C1092.62 119.027 1088.72 119.027 1086.32 120.441C1084.15 121.718 1083.95 123.681 1085.7 125.095L1029.68 157.868H976.571L926.058 128.335L944.724 117.417L932.707 110.387H967.616L1013.24 137.073C1011.5 138.487 1011.69 140.451 1013.86 141.727C1016.27 143.141 1020.16 143.141 1022.57 141.727C1024.97 140.313 1024.97 138.035 1022.57 136.641C1020.4 135.365 1017.02 135.267 1014.62 136.288L967.984 109.013H930.322L904.775 94.0697L920.476 84.88H948.33L972.83 70.5455H991.109L1032.4 94.6982C1030.53 96.112 1030.69 98.1345 1032.9 99.4305C1035.3 100.844 1039.2 100.844 1041.6 99.4305C1044.01 98.0166 1044.01 95.7388 1041.6 94.3446C1039.47 93.1075 1036.19 92.9701 1033.79 93.9126L991.477 69.171H972.462L947.961 83.5054H922.86L973.082 54.1296H1000.2L1056.72 87.1774H1162.96V85.7832H1057.09L1000.57 52.7354H972.714L972.559 52.8336L903.399 93.2843L885.256 82.6807L963.41 36.9675H1018.54L1064.01 63.555H1162.98V62.1608H1064.4L1021.31 36.9675H1162.98V35.5734H963.061L962.906 35.6715L883.919 81.8756L863.295 69.819L972.268 6.07968H1162.98V4.68552H1024L1162.98 -76.6086V-78.2188L1021.25 4.68552H973.276L1076.59 -55.7353V-69.0486L1126.04 -97.9532C1128.44 -96.9321 1131.81 -97.0499 1133.98 -98.3067C1136.39 -99.7205 1136.39 -101.998 1133.98 -103.392C1131.58 -104.806 1127.68 -104.806 1125.28 -103.392C1123.11 -102.116 1122.92 -100.152 1124.66 -98.7387L1097.74 -82.9904V-119.494L1163 -157.785V-159.395L1096.36 -120.417V-82.3031L1075.21 -69.9323V-56.6189L971.047 4.31244L971.396 4.92114L861.919 68.955L842.012 57.3107L954.474 -8.47083V-116.686L1163 -238.667V-240.277L987.329 -137.52V-235.407L1121.79 -314.05C1121.89 -313.991 1121.97 -313.913 1122.06 -313.854C1124.47 -312.44 1128.36 -312.44 1130.77 -313.854C1133.17 -315.268 1133.17 -317.545 1130.77 -318.94ZM942.011 117.378L780.47 211.868L618.949 117.398L780.489 22.908L942.011 117.378Z" fill="#889CFF" fill-opacity="0.4"/>
</svg>
